<svg width="653" height="113" viewBox="0 0 653 113" fill="none" xmlns="http://www.w3.org/2000/svg">
<g filter="url(#filter0_d_17_2)">
<mask id="path-1-outside-1_17_2" maskUnits="userSpaceOnUse" x="9" y="0" width="644" height="102" fill="black">
<rect fill="white" x="9" width="644" height="102"/>
<path d="M48.515 57.105C45.7283 56.155 43.195 55.205 40.915 54.255C38.635 53.2417 36.6717 52.0383 35.025 50.645C33.3783 49.2517 32.08 47.605 31.13 45.705C30.2433 43.7417 29.8 41.3667 29.8 38.58C29.8 33.1967 31.8583 28.89 35.975 25.66C40.155 22.43 45.9817 20.815 53.455 20.815C56.1783 20.815 58.7117 21.005 61.055 21.385C63.3983 21.765 65.3933 22.3667 67.04 23.19C68.75 23.95 70.08 24.9633 71.03 26.23C71.98 27.4333 72.455 28.8583 72.455 30.505C72.455 32.1517 72.075 33.5767 71.315 34.78C70.555 35.92 69.6367 36.9017 68.56 37.725C67.1667 36.8383 65.2983 36.0783 62.955 35.445C60.6117 34.7483 58.0467 34.4 55.26 34.4C52.41 34.4 50.32 34.8117 48.99 35.635C47.66 36.395 46.995 37.3767 46.995 38.58C46.995 39.53 47.4067 40.3217 48.23 40.955C49.0533 41.525 50.2883 42.0633 51.935 42.57L56.97 44.185C62.9233 46.085 67.4833 48.5233 70.65 51.5C73.88 54.4133 75.495 58.4033 75.495 63.47C75.495 68.8533 73.3733 73.2233 69.13 76.58C64.8867 79.8733 58.6483 81.52 50.415 81.52C47.5017 81.52 44.7783 81.2667 42.245 80.76C39.775 80.3167 37.59 79.6517 35.69 78.765C33.8533 77.815 32.3967 76.675 31.32 75.345C30.3067 73.9517 29.8 72.3683 29.8 70.595C29.8 68.7583 30.3383 67.2067 31.415 65.94C32.4917 64.61 33.6633 63.5967 34.93 62.9C36.7033 64.2933 38.8567 65.4967 41.39 66.51C43.9867 67.5233 46.805 68.03 49.845 68.03C52.9483 68.03 55.1333 67.555 56.4 66.605C57.6667 65.655 58.3 64.5467 58.3 63.28C58.3 62.0133 57.7933 61.0633 56.78 60.43C55.7667 59.7333 54.3417 59.0683 52.505 58.435L48.515 57.105ZM115.175 34.02C110.299 34.02 106.562 35.5083 103.965 38.485C101.369 41.4617 100.07 45.6733 100.07 51.12C100.07 56.63 101.495 60.8733 104.345 63.85C107.259 66.8267 111.154 68.315 116.03 68.315C118.627 68.315 120.812 67.9667 122.585 67.27C124.422 66.5733 126.164 65.7817 127.81 64.895C128.887 65.7817 129.71 66.8583 130.28 68.125C130.914 69.3283 131.23 70.7533 131.23 72.4C131.23 74.9967 129.774 77.2133 126.86 79.05C124.01 80.8233 119.64 81.71 113.75 81.71C109.507 81.71 105.517 81.1083 101.78 79.905C98.0436 78.7017 94.782 76.865 91.9953 74.395C89.2086 71.8617 86.992 68.695 85.3453 64.895C83.762 61.0317 82.9703 56.44 82.9703 51.12C82.9703 46.18 83.7303 41.8417 85.2503 38.105C86.8336 34.305 88.9553 31.1067 91.6153 28.51C94.3386 25.9133 97.5053 23.95 101.115 22.62C104.725 21.29 108.589 20.625 112.705 20.625C118.532 20.625 123.029 21.575 126.195 23.475C129.425 25.375 131.04 27.8133 131.04 30.79C131.04 32.4367 130.629 33.8617 129.805 35.065C128.982 36.2683 128.032 37.2183 126.955 37.915C125.309 36.8383 123.535 35.92 121.635 35.16C119.799 34.4 117.645 34.02 115.175 34.02ZM157.573 61.38V79.62C156.876 79.81 155.768 80 154.248 80.19C152.791 80.38 151.334 80.475 149.878 80.475C148.421 80.475 147.123 80.3483 145.983 80.095C144.906 79.905 143.988 79.525 143.228 78.955C142.531 78.385 141.993 77.5933 141.613 76.58C141.233 75.5667 141.043 74.2367 141.043 72.59V27.845C141.043 26.515 141.391 25.5017 142.088 24.805C142.848 24.045 143.861 23.4433 145.128 23C147.281 22.24 149.783 21.7017 152.633 21.385C155.483 21.005 158.523 20.815 161.753 20.815C170.493 20.815 177.079 22.6517 181.513 26.325C185.946 29.9983 188.163 34.97 188.163 41.24C188.163 45.1667 187.149 48.5233 185.123 51.31C183.096 54.0967 180.689 56.25 177.903 57.77C180.183 60.8733 182.431 63.7867 184.648 66.51C186.864 69.2333 188.606 71.7033 189.873 73.92C189.239 76.1367 188.068 77.8467 186.358 79.05C184.711 80.19 182.843 80.76 180.753 80.76C179.359 80.76 178.156 80.6017 177.143 80.285C176.129 79.9683 175.243 79.525 174.483 78.955C173.723 78.385 173.026 77.6883 172.393 76.865C171.759 76.0417 171.158 75.155 170.588 74.205L162.608 61.38H157.573ZM163.558 48.745C165.964 48.745 167.864 48.1433 169.258 46.94C170.651 45.6733 171.348 43.8367 171.348 41.43C171.348 39.0233 170.556 37.2183 168.973 36.015C167.453 34.7483 165.014 34.115 161.658 34.115C160.708 34.115 159.948 34.1467 159.378 34.21C158.808 34.2733 158.174 34.3683 157.478 34.495V48.745H163.558ZM249.971 58.72C249.971 62.14 249.369 65.275 248.166 68.125C247.026 70.9117 245.347 73.3183 243.131 75.345C240.914 77.3083 238.222 78.8283 235.056 79.905C231.889 80.9817 228.311 81.52 224.321 81.52C220.331 81.52 216.752 80.9817 213.586 79.905C210.419 78.8283 207.727 77.3083 205.511 75.345C203.294 73.3183 201.584 70.9117 200.381 68.125C199.241 65.275 198.671 62.14 198.671 58.72V22.43C199.367 22.3033 200.476 22.145 201.996 21.955C203.516 21.7017 204.972 21.575 206.366 21.575C207.822 21.575 209.089 21.7017 210.166 21.955C211.306 22.145 212.256 22.525 213.016 23.095C213.776 23.665 214.346 24.4567 214.726 25.47C215.106 26.4833 215.296 27.8133 215.296 29.46V58.435C215.296 61.475 216.119 63.85 217.766 65.56C219.476 67.27 221.661 68.125 224.321 68.125C227.044 68.125 229.229 67.27 230.876 65.56C232.522 63.85 233.346 61.475 233.346 58.435V22.43C234.042 22.3033 235.151 22.145 236.671 21.955C238.191 21.7017 239.647 21.575 241.041 21.575C242.497 21.575 243.764 21.7017 244.841 21.955C245.981 22.145 246.931 22.525 247.691 23.095C248.451 23.665 249.021 24.4567 249.401 25.47C249.781 26.4833 249.971 27.8133 249.971 29.46V58.72ZM303.462 22.43C303.905 23.1267 304.285 24.0767 304.602 25.28C304.982 26.42 305.172 27.6233 305.172 28.89C305.172 31.36 304.633 33.1333 303.557 34.21C302.543 35.2233 301.15 35.73 299.377 35.73H279.427V46.465H300.232C300.738 47.1617 301.15 48.08 301.467 49.22C301.847 50.36 302.037 51.5633 302.037 52.83C302.037 55.2367 301.498 56.9783 300.422 58.055C299.408 59.0683 298.015 59.575 296.242 59.575H279.617V79.62C278.92 79.81 277.812 80 276.292 80.19C274.835 80.38 273.378 80.475 271.922 80.475C270.465 80.475 269.167 80.3483 268.027 80.095C266.95 79.905 266.032 79.525 265.272 78.955C264.512 78.385 263.942 77.5933 263.562 76.58C263.182 75.5667 262.992 74.2367 262.992 72.59V31.265C262.992 28.5417 263.783 26.3883 265.367 24.805C266.95 23.2217 269.103 22.43 271.827 22.43H303.462ZM354.88 22.43C355.324 23.1267 355.704 24.0767 356.02 25.28C356.4 26.42 356.59 27.6233 356.59 28.89C356.59 31.36 356.052 33.1333 354.975 34.21C353.962 35.2233 352.569 35.73 350.795 35.73H330.845V46.465H351.65C352.157 47.1617 352.569 48.08 352.885 49.22C353.265 50.36 353.455 51.5633 353.455 52.83C353.455 55.2367 352.917 56.9783 351.84 58.055C350.827 59.0683 349.434 59.575 347.66 59.575H331.035V79.62C330.339 79.81 329.23 80 327.71 80.19C326.254 80.38 324.797 80.475 323.34 80.475C321.884 80.475 320.585 80.3483 319.445 80.095C318.369 79.905 317.45 79.525 316.69 78.955C315.93 78.385 315.36 77.5933 314.98 76.58C314.6 75.5667 314.41 74.2367 314.41 72.59V31.265C314.41 28.5417 315.202 26.3883 316.785 24.805C318.369 23.2217 320.522 22.43 323.245 22.43H354.88ZM402.518 58.625V79.62C401.821 79.81 400.713 80 399.193 80.19C397.673 80.38 396.184 80.475 394.728 80.475C393.271 80.475 391.973 80.3483 390.833 80.095C389.756 79.905 388.838 79.525 388.078 78.955C387.318 78.385 386.748 77.5933 386.368 76.58C385.988 75.5667 385.798 74.2367 385.798 72.59V22.43C386.494 22.3033 387.603 22.145 389.123 21.955C390.643 21.7017 392.099 21.575 393.493 21.575C394.949 21.575 396.216 21.7017 397.293 21.955C398.433 22.145 399.383 22.525 400.143 23.095C400.903 23.665 401.473 24.4567 401.853 25.47C402.233 26.4833 402.423 27.8133 402.423 29.46V44.565L422.183 21.86C426.489 21.86 429.561 22.6833 431.398 24.33C433.298 25.9133 434.248 27.8133 434.248 30.03C434.248 31.6767 433.836 33.2283 433.013 34.685C432.189 36.1417 430.859 37.7883 429.023 39.625L417.148 51.5C418.731 53.2733 420.378 55.11 422.088 57.01C423.861 58.91 425.571 60.7783 427.218 62.615C428.928 64.3883 430.543 66.0983 432.063 67.745C433.646 69.3917 435.008 70.8167 436.148 72.02C436.148 73.4133 435.894 74.6483 435.388 75.725C434.881 76.8017 434.184 77.72 433.298 78.48C432.474 79.24 431.524 79.81 430.448 80.19C429.371 80.57 428.231 80.76 427.028 80.76C424.431 80.76 422.309 80.1267 420.663 78.86C419.016 77.53 417.433 75.9783 415.913 74.205L402.518 58.625ZM461.82 79.62C461.123 79.81 460.015 80 458.495 80.19C457.038 80.38 455.582 80.475 454.125 80.475C452.668 80.475 451.37 80.3483 450.23 80.095C449.153 79.905 448.235 79.525 447.475 78.955C446.715 78.385 446.145 77.5933 445.765 76.58C445.385 75.5667 445.195 74.2367 445.195 72.59V22.43C445.892 22.3033 447 22.145 448.52 21.955C450.04 21.7017 451.497 21.575 452.89 21.575C454.347 21.575 455.613 21.7017 456.69 21.955C457.83 22.145 458.78 22.525 459.54 23.095C460.3 23.665 460.87 24.4567 461.25 25.47C461.63 26.4833 461.82 27.8133 461.82 29.46V79.62ZM472.43 35.73C471.987 35.0333 471.575 34.0833 471.195 32.88C470.815 31.6767 470.625 30.41 470.625 29.08C470.625 26.61 471.164 24.8367 472.24 23.76C473.38 22.6833 474.837 22.145 476.61 22.145H518.03C518.474 22.8417 518.885 23.7917 519.265 24.995C519.645 26.1983 519.835 27.465 519.835 28.795C519.835 31.265 519.265 33.0383 518.125 34.115C517.049 35.1917 515.624 35.73 513.85 35.73H503.305V79.62C502.609 79.81 501.5 80 499.98 80.19C498.524 80.38 497.067 80.475 495.61 80.475C494.154 80.475 492.855 80.3483 491.715 80.095C490.639 79.905 489.72 79.525 488.96 78.955C488.2 78.385 487.63 77.5933 487.25 76.58C486.87 75.5667 486.68 74.2367 486.68 72.59V35.73H472.43ZM527.096 35.73C526.653 35.0333 526.241 34.0833 525.861 32.88C525.481 31.6767 525.291 30.41 525.291 29.08C525.291 26.61 525.829 24.8367 526.906 23.76C528.046 22.6833 529.503 22.145 531.276 22.145H572.696C573.139 22.8417 573.551 23.7917 573.931 24.995C574.311 26.1983 574.501 27.465 574.501 28.795C574.501 31.265 573.931 33.0383 572.791 34.115C571.714 35.1917 570.289 35.73 568.516 35.73H557.971V79.62C557.274 79.81 556.166 80 554.646 80.19C553.189 80.38 551.733 80.475 550.276 80.475C548.819 80.475 547.521 80.3483 546.381 80.095C545.304 79.905 544.386 79.525 543.626 78.955C542.866 78.385 542.296 77.5933 541.916 76.58C541.536 75.5667 541.346 74.2367 541.346 72.59V35.73H527.096ZM615.838 79.62C615.141 79.81 614.065 80 612.608 80.19C611.151 80.38 609.726 80.475 608.333 80.475C605.42 80.475 603.235 80 601.778 79.05C600.321 78.0367 599.593 75.9467 599.593 72.78V59.955C598.01 57.6117 596.3 55.015 594.463 52.165C592.626 49.315 590.821 46.4017 589.048 43.425C587.275 40.4483 585.628 37.535 584.108 34.685C582.588 31.7717 581.353 29.1117 580.403 26.705C581.226 25.565 582.335 24.52 583.728 23.57C585.185 22.62 586.958 22.145 589.048 22.145C591.518 22.145 593.513 22.6517 595.033 23.665C596.616 24.6783 598.105 26.5783 599.498 29.365L607.383 45.23H607.953C608.84 43.2667 609.6 41.4933 610.233 39.91C610.93 38.2633 611.595 36.6483 612.228 35.065C612.861 33.4183 613.526 31.74 614.223 30.03C614.92 28.2567 615.711 26.23 616.598 23.95C617.738 23.38 619.005 22.9367 620.398 22.62C621.791 22.3033 623.121 22.145 624.388 22.145C626.605 22.145 628.473 22.7467 629.993 23.95C631.576 25.09 632.368 26.8317 632.368 29.175C632.368 29.935 632.21 30.8533 631.893 31.93C631.576 33.0067 630.848 34.6533 629.708 36.87C628.568 39.0233 626.89 41.9683 624.673 45.705C622.52 49.4417 619.575 54.3183 615.838 60.335V79.62Z"/>
</mask>
<path d="M48.515 57.105C45.7283 56.155 43.195 55.205 40.915 54.255C38.635 53.2417 36.6717 52.0383 35.025 50.645C33.3783 49.2517 32.08 47.605 31.13 45.705C30.2433 43.7417 29.8 41.3667 29.8 38.58C29.8 33.1967 31.8583 28.89 35.975 25.66C40.155 22.43 45.9817 20.815 53.455 20.815C56.1783 20.815 58.7117 21.005 61.055 21.385C63.3983 21.765 65.3933 22.3667 67.04 23.19C68.75 23.95 70.08 24.9633 71.03 26.23C71.98 27.4333 72.455 28.8583 72.455 30.505C72.455 32.1517 72.075 33.5767 71.315 34.78C70.555 35.92 69.6367 36.9017 68.56 37.725C67.1667 36.8383 65.2983 36.0783 62.955 35.445C60.6117 34.7483 58.0467 34.4 55.26 34.4C52.41 34.4 50.32 34.8117 48.99 35.635C47.66 36.395 46.995 37.3767 46.995 38.58C46.995 39.53 47.4067 40.3217 48.23 40.955C49.0533 41.525 50.2883 42.0633 51.935 42.57L56.97 44.185C62.9233 46.085 67.4833 48.5233 70.65 51.5C73.88 54.4133 75.495 58.4033 75.495 63.47C75.495 68.8533 73.3733 73.2233 69.13 76.58C64.8867 79.8733 58.6483 81.52 50.415 81.52C47.5017 81.52 44.7783 81.2667 42.245 80.76C39.775 80.3167 37.59 79.6517 35.69 78.765C33.8533 77.815 32.3967 76.675 31.32 75.345C30.3067 73.9517 29.8 72.3683 29.8 70.595C29.8 68.7583 30.3383 67.2067 31.415 65.94C32.4917 64.61 33.6633 63.5967 34.93 62.9C36.7033 64.2933 38.8567 65.4967 41.39 66.51C43.9867 67.5233 46.805 68.03 49.845 68.03C52.9483 68.03 55.1333 67.555 56.4 66.605C57.6667 65.655 58.3 64.5467 58.3 63.28C58.3 62.0133 57.7933 61.0633 56.78 60.43C55.7667 59.7333 54.3417 59.0683 52.505 58.435L48.515 57.105ZM115.175 34.02C110.299 34.02 106.562 35.5083 103.965 38.485C101.369 41.4617 100.07 45.6733 100.07 51.12C100.07 56.63 101.495 60.8733 104.345 63.85C107.259 66.8267 111.154 68.315 116.03 68.315C118.627 68.315 120.812 67.9667 122.585 67.27C124.422 66.5733 126.164 65.7817 127.81 64.895C128.887 65.7817 129.71 66.8583 130.28 68.125C130.914 69.3283 131.23 70.7533 131.23 72.4C131.23 74.9967 129.774 77.2133 126.86 79.05C124.01 80.8233 119.64 81.71 113.75 81.71C109.507 81.71 105.517 81.1083 101.78 79.905C98.0436 78.7017 94.782 76.865 91.9953 74.395C89.2086 71.8617 86.992 68.695 85.3453 64.895C83.762 61.0317 82.9703 56.44 82.9703 51.12C82.9703 46.18 83.7303 41.8417 85.2503 38.105C86.8336 34.305 88.9553 31.1067 91.6153 28.51C94.3386 25.9133 97.5053 23.95 101.115 22.62C104.725 21.29 108.589 20.625 112.705 20.625C118.532 20.625 123.029 21.575 126.195 23.475C129.425 25.375 131.04 27.8133 131.04 30.79C131.04 32.4367 130.629 33.8617 129.805 35.065C128.982 36.2683 128.032 37.2183 126.955 37.915C125.309 36.8383 123.535 35.92 121.635 35.16C119.799 34.4 117.645 34.02 115.175 34.02ZM157.573 61.38V79.62C156.876 79.81 155.768 80 154.248 80.19C152.791 80.38 151.334 80.475 149.878 80.475C148.421 80.475 147.123 80.3483 145.983 80.095C144.906 79.905 143.988 79.525 143.228 78.955C142.531 78.385 141.993 77.5933 141.613 76.58C141.233 75.5667 141.043 74.2367 141.043 72.59V27.845C141.043 26.515 141.391 25.5017 142.088 24.805C142.848 24.045 143.861 23.4433 145.128 23C147.281 22.24 149.783 21.7017 152.633 21.385C155.483 21.005 158.523 20.815 161.753 20.815C170.493 20.815 177.079 22.6517 181.513 26.325C185.946 29.9983 188.163 34.97 188.163 41.24C188.163 45.1667 187.149 48.5233 185.123 51.31C183.096 54.0967 180.689 56.25 177.903 57.77C180.183 60.8733 182.431 63.7867 184.648 66.51C186.864 69.2333 188.606 71.7033 189.873 73.92C189.239 76.1367 188.068 77.8467 186.358 79.05C184.711 80.19 182.843 80.76 180.753 80.76C179.359 80.76 178.156 80.6017 177.143 80.285C176.129 79.9683 175.243 79.525 174.483 78.955C173.723 78.385 173.026 77.6883 172.393 76.865C171.759 76.0417 171.158 75.155 170.588 74.205L162.608 61.38H157.573ZM163.558 48.745C165.964 48.745 167.864 48.1433 169.258 46.94C170.651 45.6733 171.348 43.8367 171.348 41.43C171.348 39.0233 170.556 37.2183 168.973 36.015C167.453 34.7483 165.014 34.115 161.658 34.115C160.708 34.115 159.948 34.1467 159.378 34.21C158.808 34.2733 158.174 34.3683 157.478 34.495V48.745H163.558ZM249.971 58.72C249.971 62.14 249.369 65.275 248.166 68.125C247.026 70.9117 245.347 73.3183 243.131 75.345C240.914 77.3083 238.222 78.8283 235.056 79.905C231.889 80.9817 228.311 81.52 224.321 81.52C220.331 81.52 216.752 80.9817 213.586 79.905C210.419 78.8283 207.727 77.3083 205.511 75.345C203.294 73.3183 201.584 70.9117 200.381 68.125C199.241 65.275 198.671 62.14 198.671 58.72V22.43C199.367 22.3033 200.476 22.145 201.996 21.955C203.516 21.7017 204.972 21.575 206.366 21.575C207.822 21.575 209.089 21.7017 210.166 21.955C211.306 22.145 212.256 22.525 213.016 23.095C213.776 23.665 214.346 24.4567 214.726 25.47C215.106 26.4833 215.296 27.8133 215.296 29.46V58.435C215.296 61.475 216.119 63.85 217.766 65.56C219.476 67.27 221.661 68.125 224.321 68.125C227.044 68.125 229.229 67.27 230.876 65.56C232.522 63.85 233.346 61.475 233.346 58.435V22.43C234.042 22.3033 235.151 22.145 236.671 21.955C238.191 21.7017 239.647 21.575 241.041 21.575C242.497 21.575 243.764 21.7017 244.841 21.955C245.981 22.145 246.931 22.525 247.691 23.095C248.451 23.665 249.021 24.4567 249.401 25.47C249.781 26.4833 249.971 27.8133 249.971 29.46V58.72ZM303.462 22.43C303.905 23.1267 304.285 24.0767 304.602 25.28C304.982 26.42 305.172 27.6233 305.172 28.89C305.172 31.36 304.633 33.1333 303.557 34.21C302.543 35.2233 301.15 35.73 299.377 35.73H279.427V46.465H300.232C300.738 47.1617 301.15 48.08 301.467 49.22C301.847 50.36 302.037 51.5633 302.037 52.83C302.037 55.2367 301.498 56.9783 300.422 58.055C299.408 59.0683 298.015 59.575 296.242 59.575H279.617V79.62C278.92 79.81 277.812 80 276.292 80.19C274.835 80.38 273.378 80.475 271.922 80.475C270.465 80.475 269.167 80.3483 268.027 80.095C266.95 79.905 266.032 79.525 265.272 78.955C264.512 78.385 263.942 77.5933 263.562 76.58C263.182 75.5667 262.992 74.2367 262.992 72.59V31.265C262.992 28.5417 263.783 26.3883 265.367 24.805C266.95 23.2217 269.103 22.43 271.827 22.43H303.462ZM354.88 22.43C355.324 23.1267 355.704 24.0767 356.02 25.28C356.4 26.42 356.59 27.6233 356.59 28.89C356.59 31.36 356.052 33.1333 354.975 34.21C353.962 35.2233 352.569 35.73 350.795 35.73H330.845V46.465H351.65C352.157 47.1617 352.569 48.08 352.885 49.22C353.265 50.36 353.455 51.5633 353.455 52.83C353.455 55.2367 352.917 56.9783 351.84 58.055C350.827 59.0683 349.434 59.575 347.66 59.575H331.035V79.62C330.339 79.81 329.23 80 327.71 80.19C326.254 80.38 324.797 80.475 323.34 80.475C321.884 80.475 320.585 80.3483 319.445 80.095C318.369 79.905 317.45 79.525 316.69 78.955C315.93 78.385 315.36 77.5933 314.98 76.58C314.6 75.5667 314.41 74.2367 314.41 72.59V31.265C314.41 28.5417 315.202 26.3883 316.785 24.805C318.369 23.2217 320.522 22.43 323.245 22.43H354.88ZM402.518 58.625V79.62C401.821 79.81 400.713 80 399.193 80.19C397.673 80.38 396.184 80.475 394.728 80.475C393.271 80.475 391.973 80.3483 390.833 80.095C389.756 79.905 388.838 79.525 388.078 78.955C387.318 78.385 386.748 77.5933 386.368 76.58C385.988 75.5667 385.798 74.2367 385.798 72.59V22.43C386.494 22.3033 387.603 22.145 389.123 21.955C390.643 21.7017 392.099 21.575 393.493 21.575C394.949 21.575 396.216 21.7017 397.293 21.955C398.433 22.145 399.383 22.525 400.143 23.095C400.903 23.665 401.473 24.4567 401.853 25.47C402.233 26.4833 402.423 27.8133 402.423 29.46V44.565L422.183 21.86C426.489 21.86 429.561 22.6833 431.398 24.33C433.298 25.9133 434.248 27.8133 434.248 30.03C434.248 31.6767 433.836 33.2283 433.013 34.685C432.189 36.1417 430.859 37.7883 429.023 39.625L417.148 51.5C418.731 53.2733 420.378 55.11 422.088 57.01C423.861 58.91 425.571 60.7783 427.218 62.615C428.928 64.3883 430.543 66.0983 432.063 67.745C433.646 69.3917 435.008 70.8167 436.148 72.02C436.148 73.4133 435.894 74.6483 435.388 75.725C434.881 76.8017 434.184 77.72 433.298 78.48C432.474 79.24 431.524 79.81 430.448 80.19C429.371 80.57 428.231 80.76 427.028 80.76C424.431 80.76 422.309 80.1267 420.663 78.86C419.016 77.53 417.433 75.9783 415.913 74.205L402.518 58.625ZM461.82 79.62C461.123 79.81 460.015 80 458.495 80.19C457.038 80.38 455.582 80.475 454.125 80.475C452.668 80.475 451.37 80.3483 450.23 80.095C449.153 79.905 448.235 79.525 447.475 78.955C446.715 78.385 446.145 77.5933 445.765 76.58C445.385 75.5667 445.195 74.2367 445.195 72.59V22.43C445.892 22.3033 447 22.145 448.52 21.955C450.04 21.7017 451.497 21.575 452.89 21.575C454.347 21.575 455.613 21.7017 456.69 21.955C457.83 22.145 458.78 22.525 459.54 23.095C460.3 23.665 460.87 24.4567 461.25 25.47C461.63 26.4833 461.82 27.8133 461.82 29.46V79.62ZM472.43 35.73C471.987 35.0333 471.575 34.0833 471.195 32.88C470.815 31.6767 470.625 30.41 470.625 29.08C470.625 26.61 471.164 24.8367 472.24 23.76C473.38 22.6833 474.837 22.145 476.61 22.145H518.03C518.474 22.8417 518.885 23.7917 519.265 24.995C519.645 26.1983 519.835 27.465 519.835 28.795C519.835 31.265 519.265 33.0383 518.125 34.115C517.049 35.1917 515.624 35.73 513.85 35.73H503.305V79.62C502.609 79.81 501.5 80 499.98 80.19C498.524 80.38 497.067 80.475 495.61 80.475C494.154 80.475 492.855 80.3483 491.715 80.095C490.639 79.905 489.72 79.525 488.96 78.955C488.2 78.385 487.63 77.5933 487.25 76.58C486.87 75.5667 486.68 74.2367 486.68 72.59V35.73H472.43ZM527.096 35.73C526.653 35.0333 526.241 34.0833 525.861 32.88C525.481 31.6767 525.291 30.41 525.291 29.08C525.291 26.61 525.829 24.8367 526.906 23.76C528.046 22.6833 529.503 22.145 531.276 22.145H572.696C573.139 22.8417 573.551 23.7917 573.931 24.995C574.311 26.1983 574.501 27.465 574.501 28.795C574.501 31.265 573.931 33.0383 572.791 34.115C571.714 35.1917 570.289 35.73 568.516 35.73H557.971V79.62C557.274 79.81 556.166 80 554.646 80.19C553.189 80.38 551.733 80.475 550.276 80.475C548.819 80.475 547.521 80.3483 546.381 80.095C545.304 79.905 544.386 79.525 543.626 78.955C542.866 78.385 542.296 77.5933 541.916 76.58C541.536 75.5667 541.346 74.2367 541.346 72.59V35.73H527.096ZM615.838 79.62C615.141 79.81 614.065 80 612.608 80.19C611.151 80.38 609.726 80.475 608.333 80.475C605.42 80.475 603.235 80 601.778 79.05C600.321 78.0367 599.593 75.9467 599.593 72.78V59.955C598.01 57.6117 596.3 55.015 594.463 52.165C592.626 49.315 590.821 46.4017 589.048 43.425C587.275 40.4483 585.628 37.535 584.108 34.685C582.588 31.7717 581.353 29.1117 580.403 26.705C581.226 25.565 582.335 24.52 583.728 23.57C585.185 22.62 586.958 22.145 589.048 22.145C591.518 22.145 593.513 22.6517 595.033 23.665C596.616 24.6783 598.105 26.5783 599.498 29.365L607.383 45.23H607.953C608.84 43.2667 609.6 41.4933 610.233 39.91C610.93 38.2633 611.595 36.6483 612.228 35.065C612.861 33.4183 613.526 31.74 614.223 30.03C614.92 28.2567 615.711 26.23 616.598 23.95C617.738 23.38 619.005 22.9367 620.398 22.62C621.791 22.3033 623.121 22.145 624.388 22.145C626.605 22.145 628.473 22.7467 629.993 23.95C631.576 25.09 632.368 26.8317 632.368 29.175C632.368 29.935 632.21 30.8533 631.893 31.93C631.576 33.0067 630.848 34.6533 629.708 36.87C628.568 39.0233 626.89 41.9683 624.673 45.705C622.52 49.4417 619.575 54.3183 615.838 60.335V79.62Z" fill="url(#paint0_linear_17_2)"/>
<path d="M48.515 57.105L42.0615 76.0352C42.1045 76.0498 42.1474 76.0643 42.1904 76.0787L48.515 57.105ZM40.915 54.255L32.7922 72.5312C32.935 72.5947 33.0785 72.6564 33.2227 72.7165L40.915 54.255ZM31.13 45.705L12.9026 53.9367C13.0108 54.1765 13.1238 54.414 13.2415 54.6493L31.13 45.705ZM35.975 25.66L23.7461 9.8343C23.707 9.86447 23.6681 9.89478 23.6293 9.92523L35.975 25.66ZM61.055 21.385L64.2564 1.64289L64.2564 1.64288L61.055 21.385ZM67.04 23.19L58.0958 41.0786C58.3666 41.214 58.6405 41.3432 58.9172 41.4662L67.04 23.19ZM71.03 26.23L55.03 38.23C55.1292 38.3622 55.2299 38.4932 55.3323 38.6229L71.03 26.23ZM71.315 34.78L87.956 45.874C88.0473 45.7371 88.1369 45.599 88.2248 45.4598L71.315 34.78ZM68.56 37.725L57.8225 54.5982C64.9026 59.1038 74.0426 58.71 80.709 53.6122L68.56 37.725ZM62.955 35.445L57.2556 54.6157C57.4154 54.6632 57.5759 54.7088 57.7368 54.7523L62.955 35.445ZM48.99 35.635L58.9128 52.9999C59.1163 52.8836 59.3178 52.7637 59.5171 52.6403L48.99 35.635ZM48.23 40.955L36.0358 56.8075C36.3008 57.0113 36.5709 57.2085 36.8458 57.3988L48.23 40.955ZM51.935 42.57L58.0436 23.5257C57.9681 23.5015 57.8925 23.4777 57.8167 23.4544L51.935 42.57ZM56.97 44.185L50.8614 63.2293C50.8707 63.2323 50.8799 63.2352 50.8892 63.2382L56.97 44.185ZM70.65 51.5L56.9518 66.0726C57.0518 66.1665 57.1527 66.2595 57.2546 66.3514L70.65 51.5ZM69.13 76.58L81.3925 92.3797C81.4412 92.3419 81.4897 92.3039 81.5381 92.2657L69.13 76.58ZM42.245 80.76L46.1673 61.1484C46.0379 61.1225 45.9082 61.0979 45.7783 61.0746L42.245 80.76ZM35.69 78.765L26.5015 96.5294C26.7427 96.6541 26.9863 96.7739 27.2323 96.8887L35.69 78.765ZM31.32 75.345L15.1453 87.1084C15.3481 87.3873 15.5581 87.6609 15.7751 87.929L31.32 75.345ZM31.415 65.94L46.6538 78.893C46.7573 78.7712 46.8593 78.6482 46.9599 78.524L31.415 65.94ZM34.93 62.9L47.2864 47.1736C40.9788 42.2177 32.3204 41.5099 25.2916 45.3757L34.93 62.9ZM41.39 66.51L33.9622 85.0795C34.0144 85.1004 34.0667 85.1211 34.1192 85.1416L41.39 66.51ZM56.4 66.605L68.4 82.605L68.4 82.605L56.4 66.605ZM56.78 60.43L45.4494 76.9108C45.6894 77.0758 45.933 77.2356 46.18 77.39L56.78 60.43ZM52.505 58.435L59.0248 39.5275C58.9598 39.5051 58.8948 39.4831 58.8296 39.4613L52.505 58.435ZM54.9685 38.1748C52.5233 37.3412 50.4113 36.5451 48.6073 35.7935L33.2227 72.7165C35.9787 73.8649 38.9333 74.9688 42.0615 76.0352L54.9685 38.1748ZM49.0378 35.9788C48.226 35.618 47.9367 35.3712 47.9438 35.3773L22.1062 65.9127C25.4066 68.7054 29.044 70.8653 32.7922 72.5312L49.0378 35.9788ZM47.9438 35.3773C48.1143 35.5215 48.3175 35.723 48.5216 35.9819C48.7263 36.2415 48.8927 36.5091 49.0185 36.7607L13.2415 54.6493C15.4218 59.01 18.4246 62.7976 22.1062 65.9127L47.9438 35.3773ZM49.3574 37.4733C49.6465 38.1134 49.756 38.5837 49.7929 38.7813C49.8284 38.9714 49.8 38.925 49.8 38.58H9.8C9.8 43.4057 10.5581 48.7453 12.9026 53.9367L49.3574 37.4733ZM49.8 38.58C49.8 38.4895 49.8023 39.0715 49.3887 39.9369C48.9666 40.8199 48.4473 41.2955 48.3207 41.3948L23.6293 9.92523C14.5204 17.0722 9.8 27.261 9.8 38.58H49.8ZM48.204 41.4857C47.6889 41.8837 48.617 40.815 53.455 40.815V0.814998C43.3463 0.814998 32.6211 2.97628 23.7461 9.8343L48.204 41.4857ZM53.455 40.815C55.2588 40.815 56.7096 40.9416 57.8536 41.1271L64.2564 1.64288C60.7138 1.0684 57.0979 0.814998 53.455 0.814998V40.815ZM57.8536 41.1271C58.2726 41.1951 58.4868 41.2552 58.5339 41.2694C58.5808 41.2835 58.4139 41.2376 58.0958 41.0786L75.9842 5.30144C72.092 3.35534 68.0506 2.25817 64.2564 1.64289L57.8536 41.1271ZM58.9172 41.4662C58.0778 41.0931 56.4709 40.1512 55.03 38.23L87.03 14.23C83.6891 9.77551 79.4222 6.80687 75.1628 4.91377L58.9172 41.4662ZM55.3323 38.6229C54.4024 37.445 53.6352 36.0563 53.1251 34.5258C52.6206 33.0124 52.455 31.6254 52.455 30.505H92.455C92.455 24.7173 90.6772 18.8399 86.7277 13.8371L55.3323 38.6229ZM52.455 30.505C52.455 28.9769 52.8457 26.5693 54.4052 24.1002L88.2248 45.4598C91.3043 40.584 92.455 35.3264 92.455 30.505H52.455ZM54.674 23.686C55.1234 23.0119 55.7171 22.3684 56.411 21.8378L80.709 53.6122C83.5562 51.4349 85.9866 48.8281 87.956 45.874L54.674 23.686ZM79.2975 20.8518C75.6007 18.4993 71.6416 17.0751 68.1732 16.1377L57.7368 54.7523C57.9982 54.8229 58.1977 54.884 58.3417 54.9316C58.4862 54.9795 58.5618 55.0094 58.5778 55.0159C58.5943 55.0226 58.5346 54.9992 58.4124 54.9375C58.2907 54.8761 58.0872 54.7667 57.8225 54.5982L79.2975 20.8518ZM68.6544 16.2743C64.2236 14.957 59.7119 14.4 55.26 14.4V54.4C56.3815 54.4 56.9997 54.5397 57.2556 54.6157L68.6544 16.2743ZM55.26 14.4C51.3131 14.4 44.6189 14.8189 38.4629 18.6297L59.5171 52.6403C57.5442 53.8616 55.9378 54.2298 55.4201 54.3317C54.8482 54.4444 54.7275 54.4 55.26 54.4V14.4ZM39.0672 18.2701C33.4786 21.4636 26.995 28.1844 26.995 38.58H66.995C66.995 41.9139 65.9977 45.2861 64.0521 48.1582C62.2464 50.8238 60.1529 52.2912 58.9128 52.9999L39.0672 18.2701ZM26.995 38.58C26.995 46.3778 30.8198 52.7952 36.0358 56.8075L60.4242 25.1025C61.9464 26.2734 63.7055 28.0772 65.0481 30.6592C66.4197 33.2968 66.995 36.0563 66.995 38.58H26.995ZM36.8458 57.3988C40.1436 59.682 43.6421 60.9437 46.0533 61.6856L57.8167 23.4544C57.5241 23.3644 57.5364 23.3525 57.7655 23.4523C57.9587 23.5366 58.6659 23.8547 59.6142 24.5112L36.8458 57.3988ZM45.8264 61.6143L50.8614 63.2293L63.0786 25.1407L58.0436 23.5257L45.8264 61.6143ZM50.8892 63.2382C55.1551 64.5997 56.6957 65.8318 56.9518 66.0726L84.3482 36.9274C78.271 31.2149 70.6915 27.5703 63.0508 25.1318L50.8892 63.2382ZM57.2546 66.3514C56.6455 65.802 56.0858 65.0238 55.7448 64.1814C55.4325 63.4097 55.495 63.0609 55.495 63.47H95.495C95.495 53.7663 92.1854 43.9906 84.0454 36.6486L57.2546 66.3514ZM55.495 63.47C55.495 63.4977 55.4929 63.3484 55.5542 63.0663C55.6171 62.7772 55.7306 62.4239 55.9121 62.0499C56.3088 61.2328 56.7542 60.8688 56.7219 60.8943L81.5381 92.2657C90.5483 85.1381 95.495 75.0035 95.495 63.47H55.495ZM56.8675 60.7803C57.2518 60.482 57.1962 60.675 56.1644 60.9473C55.0954 61.2295 53.2576 61.52 50.415 61.52V101.52C60.8501 101.52 72.209 99.5072 81.3925 92.3797L56.8675 60.7803ZM50.415 61.52C48.6547 61.52 47.2578 61.3665 46.1673 61.1484L38.3227 100.372C42.2989 101.167 46.3486 101.52 50.415 101.52V61.52ZM45.7783 61.0746C44.6876 60.8788 44.209 60.6699 44.1477 60.6413L27.2323 96.8887C30.971 98.6334 34.8624 99.7545 38.7117 100.445L45.7783 61.0746ZM44.8785 61.0006C44.9948 61.0608 45.8805 61.545 46.8649 62.761L15.7751 87.929C18.9128 91.805 22.7118 94.5692 26.5015 96.5294L44.8785 61.0006ZM47.4947 63.5816C48.1959 64.5457 48.8087 65.705 49.2285 67.017C49.6465 68.3232 49.8 69.551 49.8 70.595H9.8C9.8 76.4626 11.569 82.191 15.1453 87.1084L47.4947 63.5816ZM49.8 70.595C49.8 71.6466 49.6422 73.0431 49.0989 74.6092C48.5459 76.2029 47.6999 77.6622 46.6538 78.893L16.1762 52.987C11.6976 58.256 9.8 64.5454 9.8 70.595H49.8ZM46.9599 78.524C46.7003 78.8446 45.9484 79.6653 44.5684 80.4243L25.2916 45.3757C21.3783 47.528 18.283 50.3754 15.8701 53.356L46.9599 78.524ZM22.5736 78.6264C26.1212 81.4138 30.0164 83.5012 33.9622 85.0795L48.8178 47.9405C47.6969 47.4921 47.2855 47.1729 47.2864 47.1736L22.5736 78.6264ZM34.1192 85.1416C39.235 87.138 44.5436 88.03 49.845 88.03V48.03C49.0665 48.03 48.7383 47.9087 48.6608 47.8784L34.1192 85.1416ZM49.845 88.03C53.766 88.03 61.6452 87.6711 68.4 82.605L44.4 50.605C46.8096 48.7978 48.9249 48.2689 49.5627 48.1302C50.2862 47.9729 50.4742 48.03 49.845 48.03V88.03ZM68.4 82.605C73.3063 78.9253 78.3 72.4038 78.3 63.28H38.3C38.3 60.4045 39.0641 57.5816 40.4601 55.1385C41.782 52.8253 43.3584 51.3862 44.4 50.605L68.4 82.605ZM78.3 63.28C78.3 55.6168 74.6522 48.0151 67.38 43.47L46.18 77.39C44.0516 76.0597 41.8434 73.9739 40.2729 71.0293C38.7299 68.1361 38.3 65.3498 38.3 63.28H78.3ZM68.1106 43.9492C65.0093 41.817 61.7028 40.451 59.0248 39.5275L45.9852 77.3425C46.3908 77.4823 46.5393 77.5537 46.4935 77.5324C46.4644 77.5188 46.3585 77.4684 46.1915 77.3751C46.0259 77.2827 45.7699 77.1312 45.4494 76.9108L68.1106 43.9492ZM58.8296 39.4613L54.8396 38.1313L42.1904 76.0787L46.1804 77.4087L58.8296 39.4613ZM103.965 38.485L119.037 51.6324L119.037 51.6324L103.965 38.485ZM104.345 63.85L89.8992 77.6814C89.9498 77.7343 90.0007 77.7869 90.0519 77.8393L104.345 63.85ZM122.585 67.27L115.492 48.57C115.419 48.5979 115.345 48.6262 115.272 48.655L122.585 67.27ZM127.81 64.895L140.524 49.4564C134.253 44.2919 125.481 43.434 118.328 47.2856L127.81 64.895ZM130.28 68.125L112.042 76.3323C112.21 76.707 112.391 77.0763 112.582 77.4399L130.28 68.125ZM126.86 79.05L137.426 96.0311C137.46 96.0104 137.493 95.9895 137.526 95.9685L126.86 79.05ZM101.78 79.905L95.6497 98.9422V98.9422L101.78 79.905ZM91.9953 74.395L78.5419 89.1938C78.6039 89.2502 78.6664 89.3063 78.7292 89.3619L91.9953 74.395ZM85.3453 64.895L66.8392 72.4795C66.8896 72.6025 66.9413 72.7251 66.9942 72.8471L85.3453 64.895ZM85.2503 38.105L66.7888 30.4127C66.7671 30.4647 66.7456 30.5168 66.7244 30.569L85.2503 38.105ZM91.6153 28.51L77.8138 14.0352C77.7571 14.0893 77.7007 14.1438 77.6446 14.1985L91.6153 28.51ZM101.115 22.62L94.2012 3.85313L94.2012 3.85314L101.115 22.62ZM126.195 23.475L115.905 40.6249C115.955 40.6547 116.005 40.6843 116.055 40.7137L126.195 23.475ZM129.805 35.065L113.299 23.7713L113.299 23.7713L129.805 35.065ZM126.955 37.915L116.01 54.6544C122.63 58.9829 131.18 59.0033 137.82 54.7064L126.955 37.915ZM121.635 35.16L113.988 53.6403C114.061 53.6705 114.134 53.7002 114.207 53.7295L121.635 35.16ZM115.175 14.02C105.991 14.02 96.1586 17.0098 88.8939 25.3376L119.037 51.6324C118.207 52.5837 117.144 53.3072 116.116 53.7166C115.187 54.0865 114.747 54.02 115.175 54.02V14.02ZM88.8939 25.3376C82.0925 33.1344 80.0703 42.6716 80.0703 51.12H120.07C120.07 49.9429 120.215 49.5774 120.157 49.7681C120.123 49.8775 120.033 50.1308 119.846 50.4772C119.655 50.8288 119.389 51.2283 119.037 51.6324L88.8939 25.3376ZM80.0703 51.12C80.0703 60.0029 82.4188 69.8686 89.8992 77.6814L118.791 50.0186C119.155 50.3985 119.454 50.801 119.685 51.1902C119.912 51.5746 120.037 51.885 120.099 52.068C120.213 52.4092 120.07 52.1911 120.07 51.12H80.0703ZM90.0519 77.8393C97.3706 85.317 106.769 88.315 116.03 88.315V48.315C115.626 48.315 115.908 48.2553 116.59 48.5162C117.335 48.8009 118.075 49.2845 118.639 49.8607L90.0519 77.8393ZM116.03 88.315C120.28 88.315 125.117 87.7632 129.898 85.885L115.272 48.655C115.923 48.3992 116.358 48.3207 116.468 48.3032C116.577 48.2857 116.45 48.315 116.03 48.315V88.315ZM129.678 85.9699C132.294 84.978 134.837 83.8268 137.292 82.5044L118.328 47.2856C117.491 47.7366 116.55 48.1687 115.492 48.57L129.678 85.9699ZM115.096 80.3336C113.81 79.2748 112.739 77.8806 112.042 76.3323L148.519 59.9177C146.682 55.8361 143.964 52.2886 140.524 49.4564L115.096 80.3336ZM112.582 77.4399C111.416 75.2255 111.23 73.3208 111.23 72.4H151.23C151.23 68.1859 150.411 63.4312 147.979 58.8101L112.582 77.4399ZM111.23 72.4C111.23 69.7069 112.057 67.1058 113.424 65.0264C114.659 63.1473 115.926 62.3009 116.194 62.1315L137.526 95.9685C144.123 91.81 151.23 84.05 151.23 72.4H111.23ZM116.294 62.0689C117.435 61.359 118.04 61.3283 117.468 61.4444C116.932 61.5533 115.757 61.71 113.75 61.71V101.71C120.915 101.71 129.819 100.765 137.426 96.0311L116.294 62.0689ZM113.75 61.71C111.42 61.71 109.513 61.3836 107.911 60.8678L95.6497 98.9422C101.521 100.833 107.594 101.71 113.75 101.71V61.71ZM107.911 60.8678C106.663 60.466 105.865 59.9634 105.261 59.4281L78.7292 89.3619C83.6985 93.7666 89.424 96.9373 95.6497 98.9422L107.911 60.8678ZM105.449 59.5962C104.963 59.1548 104.328 58.4008 103.696 56.9429L66.9942 72.8471C69.6557 78.9892 73.454 84.5685 78.5419 89.1938L105.449 59.5962ZM103.851 57.3105C103.484 56.4152 102.97 54.5229 102.97 51.12H62.9703C62.9703 58.3571 64.0395 65.6481 66.8392 72.4795L103.851 57.3105ZM102.97 51.12C102.97 48.2 103.422 46.5126 103.776 45.641L66.7244 30.569C64.039 37.1708 62.9703 44.16 62.9703 51.12H102.97ZM103.712 45.7973C104.371 44.2155 105.051 43.3439 105.586 42.8215L77.6446 14.1985C72.8597 18.8694 69.2964 24.3945 66.7888 30.4127L103.712 45.7973ZM105.417 42.9848C106.117 42.3173 106.925 41.7936 108.029 41.3869L94.2012 3.85314C88.0852 6.1064 82.5605 9.50932 77.8138 14.0352L105.417 42.9848ZM108.029 41.3869C109.275 40.9281 110.782 40.625 112.705 40.625V0.625C106.395 0.625 100.176 1.65193 94.2012 3.85313L108.029 41.3869ZM112.705 40.625C114.58 40.625 115.729 40.7821 116.314 40.9056C116.9 41.0293 116.626 41.0572 115.905 40.6249L136.485 6.32514C128.905 1.77677 120.25 0.625 112.705 0.625V40.625ZM116.055 40.7137C115.763 40.5417 114.43 39.6979 113.155 37.7727C111.753 35.6557 111.04 33.1555 111.04 30.79H151.04C151.04 18.8315 143.843 10.6525 136.336 6.23632L116.055 40.7137ZM111.04 30.79C111.04 28.9465 111.559 26.3142 113.299 23.7713L146.311 46.3587C149.698 41.4091 151.04 35.9268 151.04 30.79H111.04ZM113.299 23.7713C113.769 23.0845 114.656 22.0515 116.09 21.1236L137.82 54.7064C141.408 52.3851 144.195 49.4522 146.311 46.3587L113.299 23.7713ZM137.9 21.1756C135.101 19.3455 132.144 17.8228 129.063 16.5905L114.207 53.7295C114.927 54.0172 115.516 54.3312 116.01 54.6544L137.9 21.1756ZM129.282 16.6797C124.51 14.705 119.653 14.02 115.175 14.02V54.02C115.637 54.02 115.087 54.095 113.988 53.6403L129.282 16.6797ZM157.573 61.38V41.38C146.527 41.38 137.573 50.3343 137.573 61.38H157.573ZM157.573 79.62L162.835 98.9153C171.536 96.5422 177.573 88.639 177.573 79.62H157.573ZM154.248 80.19L151.767 60.3444C151.732 60.3489 151.696 60.3534 151.661 60.358L154.248 80.19ZM145.983 80.095L150.321 60.5713C150.035 60.5076 149.747 60.4503 149.458 60.3993L145.983 80.095ZM143.228 78.955L130.563 94.4341C130.781 94.6124 131.003 94.7861 131.228 94.955L143.228 78.955ZM141.613 76.58L122.886 83.6025V83.6025L141.613 76.58ZM142.088 24.805L156.23 38.9471L156.23 38.9471L142.088 24.805ZM145.128 23L151.735 41.8772C151.751 41.8714 151.768 41.8656 151.784 41.8598L145.128 23ZM152.633 21.385L154.841 41.2627C154.986 41.2466 155.131 41.2288 155.276 41.2096L152.633 21.385ZM181.513 26.325L168.752 41.7254L168.752 41.7254L181.513 26.325ZM185.123 51.31L201.298 63.0734V63.0734L185.123 51.31ZM177.903 57.77L168.326 40.2121C163.259 42.9757 159.633 47.7932 158.38 53.4267C157.127 59.0603 158.368 64.9606 161.785 69.6115L177.903 57.77ZM184.648 66.51L200.159 53.8846L200.159 53.8846L184.648 66.51ZM189.873 73.92L209.103 79.4144C210.583 74.2339 209.911 68.6752 207.238 63.9972L189.873 73.92ZM186.358 79.05L197.742 95.4939C197.784 95.4648 197.826 95.4355 197.868 95.4061L186.358 79.05ZM177.143 80.285L183.108 61.1954L177.143 80.285ZM174.483 78.955L186.483 62.955L174.483 78.955ZM172.393 76.865L156.54 89.0592L156.54 89.0592L172.393 76.865ZM170.588 74.205L187.738 63.9151C187.682 63.8226 187.626 63.7305 187.569 63.639L170.588 74.205ZM162.608 61.38L179.589 50.814C175.938 44.947 169.518 41.38 162.608 41.38V61.38ZM169.258 46.94L182.33 62.0765C182.459 61.9655 182.586 61.853 182.711 61.7388L169.258 46.94ZM168.973 36.015L156.169 51.3794C156.399 51.5709 156.633 51.7572 156.871 51.9382L168.973 36.015ZM157.478 34.495L153.9 14.8176C144.39 16.5467 137.478 24.8293 137.478 34.495H157.478ZM157.478 48.745H137.478C137.478 59.7907 146.432 68.745 157.478 68.745V48.745ZM137.573 61.38V79.62H177.573V61.38H137.573ZM152.31 60.3247C152.601 60.2456 152.794 60.2038 152.853 60.1915C152.92 60.1775 152.92 60.1787 152.84 60.1926C152.762 60.2059 152.634 60.2265 152.449 60.2533C152.265 60.2799 152.039 60.3105 151.767 60.3444L156.728 100.036C158.389 99.828 160.685 99.5016 162.835 98.9153L152.31 60.3247ZM151.661 60.358C151.055 60.4371 150.462 60.475 149.878 60.475V100.475C152.207 100.475 154.527 100.323 156.835 100.022L151.661 60.358ZM149.878 60.475C149.724 60.475 149.688 60.4681 149.754 60.4745C149.818 60.4808 150.016 60.5033 150.321 60.5713L141.644 99.6187C144.508 100.255 147.304 100.475 149.878 100.475V60.475ZM149.458 60.3993C151.006 60.6724 153.121 61.3752 155.228 62.955L131.228 94.955C134.854 97.6748 138.806 99.1376 142.507 99.7907L149.458 60.3993ZM155.893 63.4759C158.432 65.5534 159.731 67.9356 160.339 69.5575L122.886 83.6025C124.254 87.251 126.631 91.2166 130.563 94.4341L155.893 63.4759ZM160.339 69.5575C160.762 70.6846 160.921 71.5545 160.984 71.9941C161.049 72.447 161.043 72.6693 161.043 72.59H121.043C121.043 75.5141 121.344 79.4908 122.886 83.6025L160.339 69.5575ZM161.043 72.59V27.845H121.043V72.59H161.043ZM161.043 27.845C161.043 29.9102 160.447 34.73 156.23 38.9471L127.946 10.6628C122.335 16.2733 121.043 23.1198 121.043 27.845H161.043ZM156.23 38.9471C154.405 40.7722 152.616 41.5686 151.735 41.8772L138.521 4.12282C135.106 5.31806 131.291 7.31778 127.946 10.6629L156.23 38.9471ZM151.784 41.8598C152.188 41.7173 153.141 41.4516 154.841 41.2627L150.424 1.50732C146.425 1.95172 142.374 2.76265 138.471 4.1402L151.784 41.8598ZM155.276 41.2096C157.151 40.9596 159.301 40.815 161.753 40.815V0.814998C157.745 0.814998 153.815 1.05038 149.99 1.56044L155.276 41.2096ZM161.753 40.815C168.145 40.815 169.355 42.225 168.752 41.7254L194.273 10.9246C184.804 3.07837 172.84 0.814998 161.753 0.814998V40.815ZM168.752 41.7254C168.778 41.7462 168.696 41.6813 168.57 41.5177C168.441 41.3505 168.323 41.1533 168.234 40.9531C168.146 40.7565 168.123 40.6394 168.125 40.6501C168.128 40.6678 168.163 40.8508 168.163 41.24H208.163C208.163 29.6175 203.737 18.766 194.273 10.9246L168.752 41.7254ZM168.163 41.24C168.163 41.4767 168.134 41.328 168.256 40.9224C168.386 40.4922 168.619 39.9991 168.948 39.5466L201.298 63.0734C206.149 56.4031 208.163 48.7794 208.163 41.24H168.163ZM168.948 39.5466C168.712 39.8713 168.543 40.0379 168.462 40.1102C168.385 40.1787 168.345 40.2017 168.326 40.2121L187.48 75.3279C193.085 72.2707 197.679 68.0484 201.298 63.0734L168.948 39.5466ZM161.785 69.6115C164.242 72.956 166.693 76.1328 169.137 79.1354L200.159 53.8846C198.17 51.4406 196.123 48.7907 194.02 45.9285L161.785 69.6115ZM169.137 79.1354C170.899 81.301 171.943 82.8541 172.508 83.8428L207.238 63.9972C205.269 60.5525 202.83 57.1657 200.159 53.8846L169.137 79.1354ZM170.642 68.4256C170.852 67.6929 171.26 66.6697 172.02 65.5604C172.795 64.4301 173.769 63.4528 174.848 62.6939L197.868 95.4061C203.706 91.2977 207.351 85.5478 209.103 79.4144L170.642 68.4256ZM174.974 62.6062C175.806 62.0297 176.793 61.5364 177.885 61.203C178.971 60.8719 179.958 60.76 180.753 60.76V100.76C186.723 100.76 192.599 99.0542 197.742 95.4939L174.974 62.6062ZM180.753 60.76C180.789 60.76 181.696 60.754 183.108 61.1954L171.177 99.3746C174.617 100.449 177.93 100.76 180.753 100.76V60.76ZM183.108 61.1954C184.014 61.4785 185.221 62.0086 186.483 62.955L162.483 94.955C165.265 97.0414 168.245 98.4582 171.177 99.3746L183.108 61.1954ZM186.483 62.955C187.302 63.5693 187.875 64.1897 188.245 64.6708L156.54 89.0592C158.177 91.187 160.144 93.2007 162.483 94.955L186.483 62.955ZM188.245 64.6708C188.11 64.4955 187.938 64.2492 187.738 63.9151L153.438 84.4949C154.377 86.0608 155.408 87.5879 156.54 89.0592L188.245 64.6708ZM187.569 63.639L179.589 50.814L145.627 71.946L153.607 84.771L187.569 63.639ZM162.608 41.38H157.573V81.38H162.608V41.38ZM163.558 68.745C169.263 68.745 176.31 67.2761 182.33 62.0765L156.185 31.8035C159.419 29.0106 162.666 28.745 163.558 28.745V68.745ZM182.711 61.7388C189.366 55.6886 191.348 47.8034 191.348 41.43H151.348C151.348 40.7379 151.445 39.3134 152.125 37.5194C152.845 35.623 154.068 33.7198 155.804 32.1412L182.711 61.7388ZM191.348 41.43C191.348 34.2421 188.698 25.8854 181.074 20.0918L156.871 51.9382C154.98 50.5007 153.422 48.5469 152.438 46.3045C151.506 44.1798 151.348 42.3954 151.348 41.43H191.348ZM181.776 20.6506C174.895 14.916 166.712 14.115 161.658 14.115V54.115C162.164 54.115 161.839 54.1718 160.976 53.9477C160.095 53.7188 158.206 53.0767 156.169 51.3794L181.776 20.6506ZM161.658 14.115C160.381 14.115 158.791 14.1521 157.169 14.3323L161.586 54.0877C161.507 54.0965 161.44 54.103 161.388 54.1077C161.336 54.1124 161.295 54.1155 161.266 54.1176C161.21 54.1216 161.189 54.1222 161.208 54.1214C161.226 54.1206 161.273 54.119 161.351 54.1175C161.429 54.1161 161.53 54.115 161.658 54.115V14.115ZM157.169 14.3323C156.049 14.4567 154.95 14.6267 153.9 14.8176L161.055 54.1724C161.399 54.11 161.566 54.0899 161.586 54.0877L157.169 14.3323ZM137.478 34.495V48.745H177.478V34.495H137.478ZM157.478 68.745H163.558V28.745H157.478V68.745ZM248.166 68.125L229.741 60.3455C229.712 60.4143 229.683 60.4832 229.655 60.5523L248.166 68.125ZM243.131 75.345L256.391 90.3168C256.47 90.247 256.548 90.1766 256.626 90.1056L243.131 75.345ZM235.056 79.905L241.494 98.8405L235.056 79.905ZM213.586 79.905L207.148 98.8405L213.586 79.905ZM205.511 75.345L192.015 90.1056C192.093 90.1766 192.171 90.247 192.25 90.3168L205.511 75.345ZM200.381 68.125L181.811 75.5528C181.878 75.7207 181.948 75.8877 182.019 76.0537L200.381 68.125ZM198.671 22.43L195.093 2.75261C185.583 4.48169 178.671 12.7643 178.671 22.43H198.671ZM201.996 21.955L204.476 41.8006C204.746 41.7668 205.015 41.7276 205.284 41.6829L201.996 21.955ZM210.166 21.955L205.585 41.4233C206.013 41.524 206.444 41.6106 206.878 41.6829L210.166 21.955ZM213.016 23.095L225.016 7.095V7.09499L213.016 23.095ZM214.726 25.47L195.999 32.4925L195.999 32.4925L214.726 25.47ZM217.766 65.56L203.359 79.4328C203.447 79.5234 203.535 79.6132 203.624 79.7021L217.766 65.56ZM230.876 65.56L216.469 51.6872V51.6872L230.876 65.56ZM233.346 22.43L229.768 2.75261C220.258 4.48169 213.346 12.7643 213.346 22.43H233.346ZM236.671 21.955L239.151 41.8006C239.421 41.7668 239.69 41.7276 239.959 41.6829L236.671 21.955ZM244.841 21.955L240.26 41.4233C240.688 41.524 241.119 41.6106 241.553 41.6829L244.841 21.955ZM247.691 23.095L235.691 39.095L235.691 39.095L247.691 23.095ZM249.401 25.47L230.674 32.4924L230.674 32.4925L249.401 25.47ZM229.971 58.72C229.971 59.7506 229.8 60.2053 229.741 60.3455L266.591 75.9045C268.938 70.3447 269.971 64.5294 269.971 58.72H229.971ZM229.655 60.5523C229.647 60.5715 229.641 60.5848 229.637 60.5927C229.635 60.5968 229.634 60.5997 229.633 60.6015C229.632 60.6033 229.631 60.6042 229.631 60.6043C229.631 60.6043 229.632 60.6036 229.633 60.6023C229.633 60.6009 229.634 60.599 229.636 60.5967C229.639 60.5919 229.643 60.5861 229.647 60.5798C229.651 60.5734 229.656 60.5676 229.66 60.5625C229.664 60.5575 229.666 60.5544 229.667 60.5533C229.67 60.5502 229.661 60.5608 229.635 60.5844L256.626 90.1056C261.031 86.0782 264.42 81.2147 266.677 75.6977L229.655 60.5523ZM229.87 60.3732C229.86 60.3823 229.79 60.4438 229.615 60.5424C229.436 60.6437 229.119 60.799 228.618 60.9695L241.494 98.8405C246.85 97.0192 251.945 94.2553 256.391 90.3168L229.87 60.3732ZM228.618 60.9695C227.88 61.2203 226.531 61.52 224.321 61.52V101.52C230.09 101.52 235.898 100.743 241.494 98.8405L228.618 60.9695ZM224.321 61.52C222.11 61.52 220.761 61.2203 220.024 60.9695L207.148 98.8405C212.743 100.743 218.551 101.52 224.321 101.52V61.52ZM220.024 60.9695C219.522 60.799 219.206 60.6437 219.026 60.5424C218.852 60.4438 218.782 60.3823 218.771 60.3732L192.25 90.3168C196.697 94.2553 201.791 97.0192 207.148 98.8405L220.024 60.9695ZM219.006 60.5844C218.899 60.4863 218.837 60.4158 218.742 60.1963L182.019 76.0537C184.331 81.4076 187.689 86.1504 192.015 90.1056L219.006 60.5844ZM218.95 60.6972C218.857 60.4647 218.671 59.8857 218.671 58.72H178.671C178.671 64.3943 179.624 70.0853 181.811 75.5528L218.95 60.6972ZM218.671 58.72V22.43H178.671V58.72H218.671ZM202.248 42.1074C202.248 42.1074 202.424 42.0765 202.853 42.0152C203.258 41.9574 203.793 41.8859 204.476 41.8006L199.515 2.10944C197.948 2.30535 196.372 2.51999 195.093 2.75261L202.248 42.1074ZM205.284 41.6829C205.83 41.5919 206.183 41.575 206.366 41.575V1.575C203.762 1.575 201.202 1.81146 198.708 2.22712L205.284 41.6829ZM206.366 41.575C206.522 41.575 206.532 41.5822 206.418 41.5707C206.306 41.5596 206.016 41.5247 205.585 41.4233L214.746 2.48666C211.782 1.78913 208.909 1.575 206.366 1.575V41.575ZM206.878 41.6829C205.533 41.4588 203.317 40.8207 201.016 39.095L225.016 7.09499C221.195 4.22934 217.078 2.83118 213.454 2.22711L206.878 41.6829ZM201.016 39.095C198.314 37.0689 196.767 34.5415 195.999 32.4925L233.452 18.4475C231.924 14.3718 229.237 10.2611 225.016 7.095L201.016 39.095ZM195.999 32.4925C195.576 31.3654 195.417 30.4955 195.354 30.0559C195.289 29.603 195.296 29.3807 195.296 29.46H235.296C235.296 26.5359 234.994 22.5592 233.452 18.4475L195.999 32.4925ZM195.296 29.46V58.435H235.296V29.46H195.296ZM195.296 58.435C195.296 65.1366 197.197 73.0331 203.359 79.4328L232.172 51.6872C233.475 53.0407 234.33 54.5603 234.81 55.9454C235.263 57.2532 235.296 58.1772 235.296 58.435H195.296ZM203.624 79.7021C209.477 85.5556 216.939 88.125 224.321 88.125V48.125C225.154 48.125 226.456 48.2644 227.975 48.8589C229.531 49.468 230.873 50.3832 231.908 51.4179L203.624 79.7021ZM224.321 88.125C231.606 88.125 239.3 85.6453 245.282 79.4328L216.469 51.6872C217.624 50.4883 219.086 49.4959 220.714 48.8589C222.285 48.2441 223.583 48.125 224.321 48.125V88.125ZM245.282 79.4328C251.445 73.0331 253.346 65.1366 253.346 58.435H213.346C213.346 58.1772 213.378 57.2532 213.831 55.9454C214.312 54.5603 215.166 53.0407 216.469 51.6872L245.282 79.4328ZM253.346 58.435V22.43H213.346V58.435H253.346ZM236.923 42.1074C236.923 42.1074 237.099 42.0765 237.528 42.0152C237.933 41.9574 238.468 41.8859 239.151 41.8006L234.19 2.10944C232.623 2.30535 231.047 2.51999 229.768 2.75261L236.923 42.1074ZM239.959 41.6829C240.505 41.5919 240.858 41.575 241.041 41.575V1.575C238.437 1.575 235.877 1.81146 233.383 2.22712L239.959 41.6829ZM241.041 41.575C241.197 41.575 241.207 41.5822 241.093 41.5707C240.981 41.5596 240.691 41.5247 240.26 41.4233L249.421 2.48666C246.457 1.78913 243.584 1.575 241.041 1.575V41.575ZM241.553 41.6829C240.208 41.4588 237.992 40.8207 235.691 39.095L259.691 7.09502C255.87 4.22934 251.753 2.83118 248.129 2.22711L241.553 41.6829ZM235.691 39.095C232.989 37.0689 231.442 34.5415 230.674 32.4924L268.127 18.4476C266.599 14.3718 263.912 10.2611 259.691 7.09499L235.691 39.095ZM230.674 32.4925C230.251 31.3655 230.092 30.4956 230.029 30.0559C229.964 29.6031 229.971 29.3807 229.971 29.46H269.971C269.971 26.5358 269.669 22.5591 268.127 18.4475L230.674 32.4925ZM229.971 29.46V58.72H269.971V29.46H229.971ZM303.462 22.43L320.335 11.6925C316.664 5.92352 310.3 2.43 303.462 2.43V22.43ZM304.602 25.28L285.26 30.3699C285.369 30.7853 285.492 31.197 285.628 31.6045L304.602 25.28ZM303.557 34.21L317.699 48.3521L303.557 34.21ZM279.427 35.73V15.73C268.381 15.73 259.427 24.6843 259.427 35.73H279.427ZM279.427 46.465H259.427C259.427 57.5107 268.381 66.465 279.427 66.465V46.465ZM300.232 46.465L316.406 34.7016C312.643 29.5267 306.63 26.465 300.232 26.465V46.465ZM301.467 49.22L282.196 54.5729C282.287 54.8992 282.386 55.2232 282.493 55.5445L301.467 49.22ZM300.422 58.055L314.564 72.1971V72.1971L300.422 58.055ZM279.617 59.575V39.575C268.571 39.575 259.617 48.5293 259.617 59.575H279.617ZM279.617 79.62L284.879 98.9153C293.58 96.5422 299.617 88.639 299.617 79.62H279.617ZM276.292 80.19L273.811 60.3444C273.776 60.3489 273.74 60.3534 273.705 60.358L276.292 80.19ZM268.027 80.095L272.365 60.5713C272.079 60.5076 271.791 60.4503 271.502 60.3993L268.027 80.095ZM265.272 78.955L253.272 94.955V94.955L265.272 78.955ZM263.562 76.58L244.835 83.6025V83.6025L263.562 76.58ZM286.588 33.1675C286.007 32.2544 285.677 31.5102 285.51 31.0928C285.338 30.6632 285.268 30.3997 285.26 30.3699L323.943 20.1901C323.339 17.8937 322.298 14.7779 320.335 11.6925L286.588 33.1675ZM285.628 31.6045C285.292 30.5971 285.172 29.656 285.172 28.89H325.172C325.172 25.5907 324.671 22.2429 323.575 18.9555L285.628 31.6045ZM285.172 28.89C285.172 28.768 285.174 27.767 285.63 26.2629C286.111 24.68 287.175 22.3074 289.414 20.0679L317.699 48.3521C324.286 41.7647 325.172 33.5069 325.172 28.89H285.172ZM289.414 20.0679C291.046 18.4359 292.964 17.2641 294.917 16.5541C296.793 15.8718 298.377 15.73 299.377 15.73V55.73C305.12 55.73 312.086 53.9649 317.699 48.3521L289.414 20.0679ZM299.377 15.73H279.427V55.73H299.377V15.73ZM259.427 35.73V46.465H299.427V35.73H259.427ZM279.427 66.465H300.232V26.465H279.427V66.465ZM284.057 58.2284C282.739 56.4161 282.297 54.9364 282.196 54.5729L320.737 43.8671C320.003 41.2236 318.738 37.9072 316.406 34.7016L284.057 58.2284ZM282.493 55.5445C282.157 54.5371 282.037 53.596 282.037 52.83H322.037C322.037 49.5307 321.536 46.1829 320.44 42.8955L282.493 55.5445ZM282.037 52.83C282.037 52.6318 282.048 51.5771 282.525 50.0351C283.028 48.4072 284.105 46.0876 286.279 43.9129L314.564 72.1971C321.072 65.6885 322.037 57.5621 322.037 52.83H282.037ZM286.279 43.9129C287.911 42.2809 289.829 41.1091 291.782 40.3991C293.658 39.7168 295.242 39.575 296.242 39.575V79.575C301.985 79.575 308.951 77.8099 314.564 72.1971L286.279 43.9129ZM296.242 39.575H279.617V79.575H296.242V39.575ZM259.617 59.575V79.62H299.617V59.575H259.617ZM274.354 60.3247C274.644 60.2456 274.838 60.2038 274.897 60.1915C274.963 60.1775 274.964 60.1787 274.884 60.1926C274.806 60.2059 274.678 60.2265 274.493 60.2533C274.308 60.2799 274.083 60.3105 273.811 60.3444L278.772 100.036C280.433 99.828 282.729 99.5016 284.879 98.9153L274.354 60.3247ZM273.705 60.358C273.099 60.4371 272.506 60.475 271.922 60.475V100.475C274.251 100.475 276.571 100.323 278.878 100.022L273.705 60.358ZM271.922 60.475C271.768 60.475 271.732 60.4681 271.797 60.4745C271.862 60.4808 272.06 60.5033 272.365 60.5713L263.688 99.6187C266.551 100.255 269.348 100.475 271.922 100.475V60.475ZM271.502 60.3993C273.05 60.6724 275.165 61.3752 277.272 62.955L253.272 94.955C256.898 97.6748 260.85 99.1376 264.551 99.7907L271.502 60.3993ZM277.272 62.955C279.973 64.9811 281.52 67.5085 282.288 69.5575L244.835 83.6025C246.363 87.6782 249.05 91.7889 253.272 94.955L277.272 62.955ZM282.288 69.5575C282.711 70.6846 282.87 71.5545 282.933 71.9941C282.998 72.447 282.992 72.6693 282.992 72.59H242.992C242.992 75.5141 243.293 79.4908 244.835 83.6025L282.288 69.5575ZM282.992 72.59V31.265H242.992V72.59H282.992ZM282.992 31.265C282.992 31.8283 282.91 33.0049 282.357 34.5088C281.778 36.0838 280.818 37.6379 279.509 38.9471L251.224 10.6629C245.106 16.7809 242.992 24.4597 242.992 31.265H282.992ZM279.509 38.9471C278.199 40.2564 276.645 41.2163 275.07 41.7953C273.567 42.3482 272.39 42.43 271.827 42.43V2.43C265.021 2.43 257.342 4.54485 251.224 10.6629L279.509 38.9471ZM271.827 42.43H303.462V2.43H271.827V42.43ZM354.88 22.43L371.754 11.6925C368.082 5.92352 361.718 2.43 354.88 2.43V22.43ZM356.02 25.28L336.679 30.3699C336.788 30.7853 336.911 31.197 337.047 31.6045L356.02 25.28ZM354.975 34.21L369.117 48.3521L354.975 34.21ZM330.845 35.73V15.73C319.8 15.73 310.845 24.6843 310.845 35.73H330.845ZM330.845 46.465H310.845C310.845 57.5107 319.8 66.465 330.845 66.465V46.465ZM351.65 46.465L367.825 34.7016C364.062 29.5267 358.049 26.465 351.65 26.465V46.465ZM352.885 49.22L333.615 54.5729C333.706 54.8992 333.805 55.2232 333.912 55.5445L352.885 49.22ZM351.84 58.055L365.982 72.1971V72.1971L351.84 58.055ZM331.035 59.575V39.575C319.99 39.575 311.035 48.5293 311.035 59.575H331.035ZM331.035 79.62L336.298 98.9153C344.999 96.5422 351.035 88.639 351.035 79.62H331.035ZM327.71 80.19L325.23 60.3444C325.194 60.3489 325.159 60.3534 325.124 60.358L327.71 80.19ZM319.445 80.095L323.784 60.5713C323.498 60.5076 323.21 60.4503 322.921 60.3993L319.445 80.095ZM316.69 78.955L304.69 94.955V94.955L316.69 78.955ZM314.98 76.58L296.254 83.6025L296.254 83.6025L314.98 76.58ZM338.007 33.1675C337.426 32.2544 337.095 31.5102 336.928 31.0928C336.756 30.6632 336.687 30.3997 336.679 30.3699L375.362 20.1901C374.758 17.8937 373.717 14.7779 371.754 11.6925L338.007 33.1675ZM337.047 31.6045C336.711 30.5971 336.59 29.656 336.59 28.89H376.59C376.59 25.5907 376.09 22.2429 374.994 18.9555L337.047 31.6045ZM336.59 28.89C336.59 28.768 336.592 27.767 337.049 26.2629C337.529 24.68 338.594 22.3074 340.833 20.0679L369.117 48.3521C375.705 41.7647 376.59 33.5069 376.59 28.89H336.59ZM340.833 20.0679C342.465 18.4359 344.383 17.2641 346.335 16.5541C348.212 15.8718 349.796 15.73 350.795 15.73V55.73C356.538 55.73 363.505 53.9649 369.117 48.3521L340.833 20.0679ZM350.795 15.73H330.845V55.73H350.795V15.73ZM310.845 35.73V46.465H350.845V35.73H310.845ZM330.845 66.465H351.65V26.465H330.845V66.465ZM335.476 58.2284C334.158 56.4161 333.716 54.9364 333.615 54.5729L372.156 43.8671C371.421 41.2236 370.156 37.9072 367.825 34.7016L335.476 58.2284ZM333.912 55.5445C333.576 54.5371 333.455 53.596 333.455 52.83H373.455C373.455 49.5307 372.955 46.1829 371.859 42.8955L333.912 55.5445ZM333.455 52.83C333.455 52.6318 333.467 51.5771 333.944 50.0351C334.447 48.4072 335.524 46.0876 337.698 43.9129L365.982 72.1971C372.491 65.6885 373.455 57.5621 373.455 52.83H333.455ZM337.698 43.9129C339.33 42.2809 341.248 41.1091 343.201 40.3991C345.077 39.7168 346.661 39.575 347.66 39.575V79.575C353.403 79.575 360.37 77.8099 365.982 72.1971L337.698 43.9129ZM347.66 39.575H331.035V79.575H347.66V39.575ZM311.035 59.575V79.62H351.035V59.575H311.035ZM325.773 60.3247C326.063 60.2456 326.257 60.2038 326.315 60.1915C326.382 60.1775 326.383 60.1787 326.302 60.1926C326.225 60.2059 326.097 60.2265 325.911 60.2533C325.727 60.2799 325.501 60.3105 325.23 60.3444L330.191 100.036C331.851 99.828 334.148 99.5016 336.298 98.9153L325.773 60.3247ZM325.124 60.358C324.517 60.4371 323.925 60.475 323.34 60.475V100.475C325.669 100.475 327.99 100.323 330.297 100.022L325.124 60.358ZM323.34 60.475C323.187 60.475 323.151 60.4681 323.216 60.4745C323.281 60.4808 323.478 60.5033 323.784 60.5713L315.107 99.6187C317.97 100.255 320.766 100.475 323.34 100.475V60.475ZM322.921 60.3993C324.469 60.6724 326.584 61.3752 328.69 62.955L304.69 94.955C308.317 97.6748 312.269 99.1376 315.97 99.7907L322.921 60.3993ZM328.69 62.955C331.392 64.9811 332.939 67.5085 333.707 69.5575L296.254 83.6025C297.782 87.6782 300.469 91.7889 304.69 94.955L328.69 62.955ZM333.707 69.5575C334.13 70.6846 334.289 71.5545 334.352 71.9941C334.417 72.447 334.41 72.6693 334.41 72.59H294.41C294.41 75.5141 294.712 79.4908 296.254 83.6025L333.707 69.5575ZM334.41 72.59V31.265H294.41V72.59H334.41ZM334.41 31.265C334.41 31.8283 334.329 33.0049 333.776 34.5088C333.197 36.0838 332.237 37.6379 330.927 38.9471L302.643 10.6629C296.525 16.7809 294.41 24.4597 294.41 31.265H334.41ZM330.927 38.9471C329.618 40.2564 328.064 41.2163 326.489 41.7953C324.985 42.3482 323.809 42.43 323.245 42.43V2.43C316.44 2.43 308.761 4.54485 302.643 10.6629L330.927 38.9471ZM323.245 42.43H354.88V2.43H323.245V42.43ZM402.518 58.625L417.683 45.5863C412.23 39.2441 403.407 36.9648 395.565 39.8725C387.722 42.7803 382.518 50.261 382.518 58.625H402.518ZM402.518 79.62L407.78 98.9153C416.481 96.5422 422.518 88.639 422.518 79.62H402.518ZM399.193 80.19L401.673 100.036L399.193 80.19ZM390.833 80.095L395.171 60.5713C394.885 60.5076 394.597 60.4503 394.308 60.3993L390.833 80.095ZM388.078 78.955L376.078 94.955V94.955L388.078 78.955ZM386.368 76.58L367.641 83.6025L367.641 83.6025L386.368 76.58ZM385.798 22.43L382.22 2.75261C372.71 4.48169 365.798 12.7643 365.798 22.43H385.798ZM389.123 21.955L391.603 41.8006C391.873 41.7668 392.142 41.7276 392.411 41.6829L389.123 21.955ZM397.293 21.955L392.712 41.4233C393.14 41.524 393.571 41.6106 394.005 41.6829L397.293 21.955ZM400.143 23.095L388.143 39.095V39.095L400.143 23.095ZM401.853 25.47L383.126 32.4925V32.4925L401.853 25.47ZM402.423 44.565H382.423C382.423 52.907 387.6 60.3728 395.413 63.2964C403.226 66.2201 412.033 63.9874 417.509 57.6948L402.423 44.565ZM422.183 21.86V1.86C416.397 1.86 410.894 4.36567 407.096 8.73017L422.183 21.86ZM431.398 24.33L418.047 39.2214C418.226 39.3824 418.409 39.5401 418.594 39.6944L431.398 24.33ZM433.013 34.685L415.601 24.8438V24.8438L433.013 34.685ZM429.023 39.625L443.165 53.7671V53.7671L429.023 39.625ZM417.148 51.5L403.006 37.3579C395.506 44.8579 395.165 56.9085 402.229 64.8203L417.148 51.5ZM422.088 57.01L407.222 70.3893C407.303 70.4791 407.384 70.5681 407.467 70.6564L422.088 57.01ZM427.218 62.615L412.326 75.9659C412.488 76.1461 412.653 76.3234 412.821 76.4977L427.218 62.615ZM432.063 67.745L417.367 81.3106C417.459 81.4104 417.552 81.5093 417.646 81.6072L432.063 67.745ZM436.148 72.02H456.148C456.148 66.9027 454.186 61.98 450.667 58.2651L436.148 72.02ZM435.388 75.725L417.291 67.209L417.291 67.2091L435.388 75.725ZM433.298 78.48L420.282 63.2948C420.096 63.4545 419.912 63.6176 419.732 63.784L433.298 78.48ZM420.663 78.86L408.096 94.4188C408.219 94.5182 408.343 94.6161 408.468 94.7125L420.663 78.86ZM415.913 74.205L431.098 61.1892C431.091 61.1816 431.085 61.1739 431.078 61.1663L415.913 74.205ZM382.518 58.625V79.62H422.518V58.625H382.518ZM397.255 60.3247C397.546 60.2456 397.739 60.2038 397.798 60.1915C397.864 60.1775 397.865 60.1787 397.785 60.1926C397.707 60.2059 397.579 60.2265 397.394 60.2533C397.209 60.2799 396.984 60.3105 396.712 60.3444L401.673 100.036C403.334 99.828 405.63 99.5016 407.78 98.9153L397.255 60.3247ZM396.712 60.3444C395.973 60.4368 395.314 60.475 394.728 60.475V100.475C397.055 100.475 399.372 100.323 401.673 100.036L396.712 60.3444ZM394.728 60.475C394.574 60.475 394.538 60.4681 394.603 60.4745C394.668 60.4808 394.866 60.5033 395.171 60.5713L386.494 99.6187C389.358 100.255 392.154 100.475 394.728 100.475V60.475ZM394.308 60.3993C395.856 60.6724 397.971 61.3752 400.078 62.955L376.078 94.955C379.704 97.6748 383.656 99.1376 387.357 99.7907L394.308 60.3993ZM400.078 62.955C402.779 64.9811 404.326 67.5085 405.094 69.5575L367.641 83.6025C369.169 87.6782 371.856 91.7889 376.078 94.955L400.078 62.955ZM405.094 69.5575C405.517 70.6846 405.676 71.5545 405.739 71.9941C405.804 72.447 405.798 72.6693 405.798 72.59H365.798C365.798 75.5141 366.099 79.4908 367.641 83.6025L405.094 69.5575ZM405.798 72.59V22.43H365.798V72.59H405.798ZM389.375 42.1074C389.375 42.1074 389.551 42.0765 389.98 42.0152C390.385 41.9574 390.92 41.8859 391.603 41.8006L386.642 2.10944C385.075 2.30535 383.499 2.51999 382.22 2.75261L389.375 42.1074ZM392.411 41.6829C392.957 41.5919 393.31 41.575 393.493 41.575V1.575C390.889 1.575 388.329 1.81146 385.835 2.22712L392.411 41.6829ZM393.493 41.575C393.649 41.575 393.659 41.5822 393.545 41.5707C393.433 41.5596 393.143 41.5247 392.712 41.4233L401.873 2.48666C398.909 1.78913 396.036 1.575 393.493 1.575V41.575ZM394.005 41.6829C392.66 41.4588 390.444 40.8207 388.143 39.095L412.143 7.095C408.322 4.22933 404.205 2.83118 400.581 2.22711L394.005 41.6829ZM388.143 39.095C385.441 37.0689 383.894 34.5415 383.126 32.4925L420.579 18.4475C419.051 14.3718 416.364 10.2611 412.143 7.09499L388.143 39.095ZM383.126 32.4925C382.703 31.3654 382.544 30.4955 382.481 30.0559C382.416 29.603 382.423 29.3807 382.423 29.46H422.423C422.423 26.5359 422.121 22.5592 420.579 18.4475L383.126 32.4925ZM382.423 29.46V44.565H422.423V29.46H382.423ZM417.509 57.6948L437.269 34.9898L407.096 8.73017L387.336 31.4352L417.509 57.6948ZM422.183 41.86C423.161 41.86 423.167 41.9642 422.538 41.7956C421.889 41.6216 420.044 41.0122 418.047 39.2214L444.749 9.43862C437.343 2.79893 428.065 1.86 422.183 1.86V41.86ZM418.594 39.6944C417.769 39.0071 416.592 37.7768 415.647 35.8868C414.672 33.9378 414.248 31.8874 414.248 30.03H454.248C454.248 21.1441 450.066 13.8527 444.201 8.96556L418.594 39.6944ZM414.248 30.03C414.248 28.1701 414.756 26.3387 415.601 24.8438L450.424 44.5262C452.916 40.1179 454.248 35.1832 454.248 30.03H414.248ZM415.601 24.8438C415.733 24.6102 415.831 24.4654 415.868 24.4115C415.907 24.3564 415.902 24.3675 415.839 24.4458C415.704 24.6127 415.406 24.9569 414.881 25.4829L443.165 53.7671C445.659 51.2731 448.362 48.1738 450.424 44.5261L415.601 24.8438ZM414.881 25.4829L403.006 37.3579L431.29 65.6421L443.165 53.7671L414.881 25.4829ZM402.229 64.8203C403.831 66.6147 405.495 68.4711 407.222 70.3893L436.954 43.6307C435.26 41.7489 433.631 39.9319 432.066 38.1797L402.229 64.8203ZM407.467 70.6564C409.154 72.4639 410.773 74.2337 412.326 75.9659L442.109 49.2641C440.369 47.3229 438.568 45.3561 436.709 43.3636L407.467 70.6564ZM412.821 76.4977C414.44 78.1766 415.954 79.7806 417.367 81.3106L446.759 54.1794C445.131 52.4161 443.416 50.6001 441.615 48.7323L412.821 76.4977ZM417.646 81.6072C419.207 83.2304 420.533 84.618 421.629 85.7749L450.667 58.2651C449.483 57.0154 448.085 55.5529 446.479 53.8828L417.646 81.6072ZM416.148 72.02C416.148 70.969 416.348 69.2143 417.291 67.209L453.484 84.241C455.441 80.0824 456.148 75.8577 456.148 72.02H416.148ZM417.291 67.2091C417.964 65.7785 418.981 64.4095 420.282 63.2948L446.313 93.6652C449.387 91.0305 451.798 87.8248 453.484 84.2409L417.291 67.2091ZM419.732 63.784C420.944 62.6656 422.356 61.8368 423.791 61.3302L437.104 99.0498C440.693 97.7832 444.005 95.8144 446.863 93.176L419.732 63.784ZM423.791 61.3302C424.966 60.9156 426.087 60.76 427.028 60.76V100.76C430.375 100.76 433.776 100.224 437.104 99.0498L423.791 61.3302ZM427.028 60.76C427.719 60.76 430.211 60.9725 432.857 63.0075L408.468 94.7125C414.407 99.2809 421.142 100.76 427.028 100.76V60.76ZM433.229 63.3012C432.623 62.8112 431.905 62.1307 431.098 61.1892L400.728 87.2208C402.961 89.826 405.409 92.2488 408.096 94.4188L433.229 63.3012ZM431.078 61.1663L417.683 45.5863L387.352 71.6637L400.747 87.2437L431.078 61.1663ZM461.82 79.62L467.082 98.9153C475.784 96.5422 481.82 88.639 481.82 79.62H461.82ZM458.495 80.19L456.014 60.3444C455.979 60.3489 455.943 60.3534 455.908 60.358L458.495 80.19ZM450.23 80.095L454.569 60.5713C454.282 60.5076 453.995 60.4503 453.706 60.3993L450.23 80.095ZM447.475 78.955L435.475 94.955V94.955L447.475 78.955ZM445.765 76.58L427.038 83.6025L427.038 83.6025L445.765 76.58ZM445.195 22.43L441.617 2.75261C432.107 4.48169 425.195 12.7643 425.195 22.43H445.195ZM448.52 21.955L451.001 41.8006C451.27 41.7668 451.54 41.7276 451.808 41.6829L448.52 21.955ZM456.69 21.955L452.109 41.4233C452.537 41.524 452.968 41.6106 453.402 41.6829L456.69 21.955ZM459.54 23.095L447.54 39.095V39.095L459.54 23.095ZM461.25 25.47L442.523 32.4925V32.4925L461.25 25.47ZM456.558 60.3247C456.848 60.2456 457.041 60.2038 457.1 60.1915C457.167 60.1775 457.168 60.1787 457.087 60.1926C457.009 60.2059 456.882 60.2265 456.696 60.2533C456.512 60.2799 456.286 60.3105 456.014 60.3444L460.976 100.036C462.636 99.828 464.933 99.5016 467.082 98.9153L456.558 60.3247ZM455.908 60.358C455.302 60.4371 454.709 60.475 454.125 60.475V100.475C456.454 100.475 458.775 100.323 461.082 100.022L455.908 60.358ZM454.125 60.475C453.971 60.475 453.935 60.4681 454.001 60.4745C454.066 60.4808 454.263 60.5033 454.569 60.5713L445.891 99.6187C448.755 100.255 451.551 100.475 454.125 100.475V60.475ZM453.706 60.3993C455.253 60.6724 457.369 61.3752 459.475 62.955L435.475 94.955C439.101 97.6748 443.053 99.1376 446.754 99.7907L453.706 60.3993ZM459.475 62.955C462.176 64.9811 463.723 67.5085 464.492 69.5575L427.038 83.6025C428.567 87.6782 431.253 91.7889 435.475 94.955L459.475 62.955ZM464.492 69.5575C464.914 70.6846 465.074 71.5545 465.136 71.9941C465.201 72.447 465.195 72.6693 465.195 72.59H425.195C425.195 75.5141 425.496 79.4908 427.038 83.6025L464.492 69.5575ZM465.195 72.59V22.43H425.195V72.59H465.195ZM448.773 42.1074C448.773 42.1074 448.948 42.0765 449.377 42.0152C449.782 41.9574 450.318 41.8859 451.001 41.8006L446.039 2.10944C444.472 2.30535 442.897 2.51999 441.617 2.75261L448.773 42.1074ZM451.808 41.6829C452.354 41.5919 452.707 41.575 452.89 41.575V1.575C450.286 1.575 447.726 1.81146 445.232 2.22712L451.808 41.6829ZM452.89 41.575C453.046 41.575 453.056 41.5822 452.942 41.5707C452.831 41.5596 452.54 41.5247 452.109 41.4233L461.271 2.48666C458.306 1.78913 455.434 1.575 452.89 1.575V41.575ZM453.402 41.6829C452.058 41.4588 449.841 40.8207 447.54 39.095L471.54 7.095C467.719 4.22933 463.602 2.83118 459.978 2.22711L453.402 41.6829ZM447.54 39.095C444.838 37.0689 443.292 34.5415 442.523 32.4925L479.977 18.4475C478.448 14.3718 475.761 10.2611 471.54 7.09499L447.54 39.095ZM442.523 32.4925C442.101 31.3654 441.941 30.4955 441.878 30.0559C441.814 29.603 441.82 29.3807 441.82 29.46H481.82C481.82 26.5359 481.518 22.5592 479.977 18.4475L442.523 32.4925ZM441.82 29.46V79.62H481.82V29.46H441.82ZM472.43 35.73L455.557 46.4675C459.228 52.2365 465.592 55.73 472.43 55.73V35.73ZM471.195 32.88L452.124 38.9026V38.9026L471.195 32.88ZM472.24 23.76L458.508 9.21974C458.369 9.35049 458.233 9.4832 458.098 9.61785L472.24 23.76ZM518.03 22.145L534.903 11.4074C531.232 5.6385 524.868 2.145 518.03 2.145V22.145ZM519.265 24.995L538.337 18.9724L538.337 18.9724L519.265 24.995ZM518.125 34.115L504.393 19.5747C504.254 19.7055 504.118 19.8382 503.983 19.9729L518.125 34.115ZM503.305 35.73V15.73C492.26 15.73 483.305 24.6843 483.305 35.73H503.305ZM503.305 79.62L508.568 98.9153C517.269 96.5422 523.305 88.639 523.305 79.62H503.305ZM499.98 80.19L497.5 60.3444C497.464 60.3489 497.429 60.3534 497.393 60.358L499.98 80.19ZM491.715 80.095L496.054 60.5713C495.767 60.5076 495.48 60.4503 495.191 60.3993L491.715 80.095ZM488.96 78.955L500.96 62.955L488.96 78.955ZM487.25 76.58L468.524 83.6025V83.6025L487.25 76.58ZM486.68 35.73H506.68C506.68 24.6843 497.726 15.73 486.68 15.73V35.73ZM489.303 24.9925C489.768 25.7219 490.027 26.2828 490.14 26.5428C490.259 26.8167 490.293 26.9398 490.267 26.8574L452.124 38.9026C452.783 40.9907 453.824 43.745 455.557 46.4675L489.303 24.9925ZM490.267 26.8574C490.535 27.7052 490.625 28.4775 490.625 29.08H450.625C450.625 32.3425 451.096 35.6481 452.124 38.9026L490.267 26.8574ZM490.625 29.08C490.625 29.2019 490.623 30.203 490.167 31.7071C489.686 33.29 488.622 35.6626 486.382 37.9022L458.098 9.61785C451.511 16.2053 450.625 24.4631 450.625 29.08H490.625ZM485.973 38.3003C484.603 39.5937 482.945 40.6344 481.121 41.3086C479.338 41.9673 477.758 42.145 476.61 42.145V2.145C470.452 2.145 463.854 4.17038 458.508 9.21974L485.973 38.3003ZM476.61 42.145H518.03V2.145H476.61V42.145ZM501.157 32.8826C500.693 32.1531 500.433 31.5922 500.32 31.3322C500.202 31.0583 500.168 30.9352 500.194 31.0176L538.337 18.9724C537.677 16.8843 536.636 14.13 534.903 11.4074L501.157 32.8826ZM500.194 31.0176C499.926 30.1698 499.835 29.3975 499.835 28.795H539.835C539.835 25.5325 539.365 22.2269 538.337 18.9724L500.194 31.0176ZM499.835 28.795C499.835 28.587 499.848 27.4735 500.367 25.8573C500.92 24.1378 502.09 21.75 504.393 19.5747L531.858 48.6553C538.796 42.1025 539.835 33.6746 539.835 28.795H499.835ZM503.983 19.9729C505.453 18.5031 507.239 17.3504 509.181 16.6168C511.065 15.905 512.712 15.73 513.85 15.73V55.73C519.984 55.73 526.822 53.7028 532.267 48.2571L503.983 19.9729ZM513.85 15.73H503.305V55.73H513.85V15.73ZM483.305 35.73V79.62H523.305V35.73H483.305ZM498.043 60.3247C498.333 60.2456 498.527 60.2038 498.585 60.1915C498.652 60.1775 498.653 60.1787 498.572 60.1926C498.495 60.2059 498.367 60.2265 498.181 60.2533C497.997 60.2799 497.771 60.3105 497.5 60.3444L502.461 100.036C504.121 99.828 506.418 99.5016 508.568 98.9153L498.043 60.3247ZM497.393 60.358C496.787 60.4371 496.195 60.475 495.61 60.475V100.475C497.939 100.475 500.26 100.323 502.567 100.022L497.393 60.358ZM495.61 60.475C495.457 60.475 495.42 60.4681 495.486 60.4745C495.551 60.4808 495.748 60.5033 496.054 60.5713L487.377 99.6187C490.24 100.255 493.036 100.475 495.61 100.475V60.475ZM495.191 60.3993C496.738 60.6724 498.854 61.3752 500.96 62.955L476.96 94.955C480.587 97.6748 484.539 99.1376 488.24 99.7907L495.191 60.3993ZM500.96 62.955C503.662 64.9811 505.208 67.5085 505.977 69.5575L468.524 83.6025C470.052 87.6782 472.739 91.7889 476.96 94.955L500.96 62.955ZM505.977 69.5575C506.399 70.6846 506.559 71.5545 506.622 71.9941C506.686 72.447 506.68 72.6693 506.68 72.59H466.68C466.68 75.5141 466.982 79.4908 468.524 83.6025L505.977 69.5575ZM506.68 72.59V35.73H466.68V72.59H506.68ZM486.68 15.73H472.43V55.73H486.68V15.73ZM527.096 35.73L510.223 46.4675C513.894 52.2365 520.258 55.73 527.096 55.73V35.73ZM525.861 32.88L506.789 38.9026V38.9026L525.861 32.88ZM526.906 23.76L513.174 9.21974C513.035 9.35049 512.899 9.4832 512.764 9.61785L526.906 23.76ZM572.696 22.145L589.569 11.4074C585.898 5.6385 579.534 2.145 572.696 2.145V22.145ZM573.931 24.995L593.003 18.9724L593.003 18.9724L573.931 24.995ZM572.791 34.115L559.059 19.5747C558.92 19.7055 558.784 19.8382 558.649 19.9729L572.791 34.115ZM557.971 35.73V15.73C546.925 15.73 537.971 24.6843 537.971 35.73H557.971ZM557.971 79.62L563.233 98.9153C571.935 96.5422 577.971 88.639 577.971 79.62H557.971ZM554.646 80.19L552.165 60.3444C552.13 60.3489 552.095 60.3534 552.059 60.358L554.646 80.19ZM546.381 80.095L550.72 60.5713C550.433 60.5076 550.146 60.4503 549.857 60.3993L546.381 80.095ZM543.626 78.955L555.626 62.955L543.626 78.955ZM541.916 76.58L523.189 83.6025V83.6025L541.916 76.58ZM541.346 35.73H561.346C561.346 24.6843 552.392 15.73 541.346 15.73V35.73ZM543.969 24.9925C544.433 25.7219 544.693 26.2828 544.806 26.5428C544.925 26.8167 544.959 26.9398 544.933 26.8574L506.789 38.9026C507.449 40.9907 508.49 43.745 510.223 46.4675L543.969 24.9925ZM544.933 26.8574C545.2 27.7052 545.291 28.4775 545.291 29.08H505.291C505.291 32.3425 505.762 35.6481 506.789 38.9026L544.933 26.8574ZM545.291 29.08C545.291 29.2019 545.289 30.203 544.832 31.7071C544.352 33.29 543.288 35.6626 541.048 37.9022L512.764 9.61785C506.176 16.2053 505.291 24.4631 505.291 29.08H545.291ZM540.639 38.3003C539.269 39.5937 537.611 40.6344 535.787 41.3086C534.004 41.9673 532.424 42.145 531.276 42.145V2.145C525.118 2.145 518.52 4.17038 513.174 9.21974L540.639 38.3003ZM531.276 42.145H572.696V2.145H531.276V42.145ZM555.823 32.8826C555.359 32.1531 555.099 31.5922 554.986 31.3322C554.868 31.0583 554.833 30.9352 554.859 31.0176L593.003 18.9724C592.343 16.8843 591.302 14.13 589.569 11.4074L555.823 32.8826ZM554.859 31.0176C554.592 30.1698 554.501 29.3975 554.501 28.795H594.501C594.501 25.5325 594.03 22.2269 593.003 18.9724L554.859 31.0176ZM554.501 28.795C554.501 28.587 554.513 27.4735 555.033 25.8573C555.586 24.1378 556.755 21.75 559.059 19.5747L586.523 48.6553C593.462 42.1025 594.501 33.6746 594.501 28.795H554.501ZM558.649 19.9729C560.119 18.5031 561.905 17.3504 563.847 16.6168C565.731 15.905 567.378 15.73 568.516 15.73V55.73C574.65 55.73 581.488 53.7028 586.933 48.2571L558.649 19.9729ZM568.516 15.73H557.971V55.73H568.516V15.73ZM537.971 35.73V79.62H577.971V35.73H537.971ZM552.709 60.3247C552.999 60.2456 553.193 60.2038 553.251 60.1915C553.318 60.1775 553.319 60.1787 553.238 60.1926C553.16 60.2059 553.033 60.2265 552.847 60.2533C552.663 60.2799 552.437 60.3105 552.165 60.3444L557.127 100.036C558.787 99.828 561.084 99.5016 563.233 98.9153L552.709 60.3247ZM552.059 60.358C551.453 60.4371 550.86 60.475 550.276 60.475V100.475C552.605 100.475 554.926 100.323 557.233 100.022L552.059 60.358ZM550.276 60.475C550.123 60.475 550.086 60.4681 550.152 60.4745C550.217 60.4808 550.414 60.5033 550.72 60.5713L542.042 99.6187C544.906 100.255 547.702 100.475 550.276 100.475V60.475ZM549.857 60.3993C551.404 60.6724 553.52 61.3752 555.626 62.955L531.626 94.955C535.252 97.6748 539.205 99.1376 542.905 99.7907L549.857 60.3993ZM555.626 62.955C558.328 64.9811 559.874 67.5085 560.643 69.5575L523.189 83.6025C524.718 87.6782 527.405 91.7889 531.626 94.955L555.626 62.955ZM560.643 69.5575C561.065 70.6846 561.225 71.5545 561.288 71.9941C561.352 72.447 561.346 72.6693 561.346 72.59H521.346C521.346 75.5141 521.648 79.4908 523.189 83.6025L560.643 69.5575ZM561.346 72.59V35.73H521.346V72.59H561.346ZM541.346 15.73H527.096V55.73H541.346V15.73ZM615.838 79.62L621.1 98.9153C629.802 96.5422 635.838 88.639 635.838 79.62H615.838ZM612.608 80.19L610.021 60.358L612.608 80.19ZM601.778 79.05L590.357 95.4681C590.52 95.5819 590.686 95.6933 590.853 95.8022L601.778 79.05ZM599.593 59.955H619.593C619.593 55.9642 618.399 52.0646 616.165 48.7579L599.593 59.955ZM594.463 52.165L577.652 62.999L594.463 52.165ZM589.048 43.425L571.866 53.6611V53.6611L589.048 43.425ZM584.108 34.685L566.376 43.9363C566.404 43.9899 566.432 44.0434 566.461 44.0968L584.108 34.685ZM580.403 26.705L564.189 14.9952C560.197 20.5235 559.296 27.7052 561.8 34.0483L580.403 26.705ZM583.728 23.57L572.803 6.81778C572.688 6.8925 572.574 6.96839 572.461 7.04544L583.728 23.57ZM595.033 23.665L583.939 40.306C584.043 40.3751 584.147 40.4433 584.252 40.5104L595.033 23.665ZM599.498 29.365L617.408 20.4636C617.401 20.4493 617.394 20.435 617.386 20.4207L599.498 29.365ZM607.383 45.23L589.473 54.1313C592.852 60.9306 599.79 65.23 607.383 65.23V45.23ZM607.953 45.23V65.23C615.813 65.23 622.945 60.6256 626.18 53.4617L607.953 45.23ZM610.233 39.91L591.814 32.1172C591.762 32.2384 591.712 32.36 591.663 32.4822L610.233 39.91ZM612.228 35.065L630.797 42.4928C630.831 42.4103 630.863 42.3275 630.895 42.2446L612.228 35.065ZM614.223 30.03L632.745 37.5759C632.776 37.4985 632.807 37.4209 632.838 37.343L614.223 30.03ZM616.598 23.95L607.654 6.06146C603.213 8.28168 599.757 12.0741 597.958 16.7011L616.598 23.95ZM620.398 22.62L624.83 42.1227L620.398 22.62ZM629.993 23.95L617.579 39.6309C617.817 39.8197 618.06 40.003 618.307 40.1807L629.993 23.95ZM631.893 31.93L612.706 26.2867V26.2867L631.893 31.93ZM629.708 36.87L647.384 46.2278C647.421 46.1577 647.457 46.0874 647.494 46.017L629.708 36.87ZM624.673 45.705L607.472 35.5009C607.429 35.5734 607.386 35.6461 607.344 35.719L624.673 45.705ZM615.838 60.335L598.848 49.7833C596.88 52.9511 595.838 56.6059 595.838 60.335H615.838ZM610.576 60.3247C610.832 60.2548 611.002 60.2175 611.054 60.2065C611.112 60.194 611.109 60.1958 611.032 60.2093C610.869 60.2381 610.546 60.2896 610.021 60.358L615.195 100.022C616.832 99.8085 619.026 99.4809 621.1 98.9153L610.576 60.3247ZM610.021 60.358C609.376 60.4421 608.816 60.475 608.333 60.475V100.475C610.637 100.475 612.926 100.318 615.195 100.022L610.021 60.358ZM608.333 60.475C607.901 60.475 608.108 60.4341 608.758 60.5752C609.395 60.7137 610.905 61.1248 612.703 62.2978L590.853 95.8022C597.083 99.8653 603.884 100.475 608.333 100.475V60.475ZM613.199 62.6319C616.711 65.0746 618.348 68.1987 619.025 70.141C619.642 71.9098 619.593 73.0052 619.593 72.78H579.593C579.593 77.4972 580.432 88.5641 590.357 95.4681L613.199 62.6319ZM619.593 72.78V59.955H579.593V72.78H619.593ZM616.165 48.7579C614.677 46.5554 613.047 44.0821 611.274 41.331L577.652 62.999C579.552 65.9479 581.343 68.6679 583.021 71.1521L616.165 48.7579ZM611.274 41.331C609.567 38.6823 607.886 35.9685 606.23 33.1889L571.866 53.6611C573.757 56.8348 575.685 59.9477 577.652 62.999L611.274 41.331ZM606.23 33.1889C604.607 30.4639 603.116 27.8256 601.755 25.2732L566.461 44.0968C568.14 47.2444 569.943 50.4327 571.866 53.6611L606.23 33.1889ZM601.84 25.4337C600.562 22.984 599.642 20.9716 599.006 19.3617L561.8 34.0483C563.064 37.2517 564.614 40.5593 566.376 43.9363L601.84 25.4337ZM596.617 38.4148C595.842 39.4868 595.146 39.9915 594.995 40.0945L572.461 7.04544C569.523 9.04851 566.61 11.6432 564.189 14.9952L596.617 38.4148ZM594.653 40.3222C592.255 41.8865 590.045 42.145 589.048 42.145V2.145C583.871 2.145 578.115 3.3535 572.803 6.81778L594.653 40.3222ZM589.048 42.145C588.925 42.145 586.675 42.1303 583.939 40.306L606.127 7.02398C600.35 3.17302 594.111 2.145 589.048 2.145V42.145ZM584.252 40.5104C582.695 39.5141 581.862 38.5279 581.592 38.1832C581.312 37.8255 581.349 37.7884 581.609 38.3093L617.386 20.4207C615.325 16.2982 611.825 10.6663 605.814 6.81958L584.252 40.5104ZM581.588 38.2663L589.473 54.1313L625.293 36.3287L617.408 20.4636L581.588 38.2663ZM607.383 65.23H607.953V25.23H607.383V65.23ZM626.18 53.4617C627.157 51.2983 628.037 49.2509 628.802 47.3378L591.663 32.4822C591.162 33.7358 590.522 35.235 589.726 36.9983L626.18 53.4617ZM628.652 47.7028C629.398 45.9408 630.113 44.204 630.797 42.4928L593.658 27.6372C593.076 29.0926 592.461 30.5859 591.814 32.1172L628.652 47.7028ZM630.895 42.2446C631.479 40.726 632.095 39.1699 632.745 37.5759L595.701 22.4841C594.957 24.3101 594.244 26.1106 593.561 27.8854L630.895 42.2446ZM632.838 37.343C633.545 35.5434 634.345 33.4947 635.238 31.1989L597.958 16.7011C597.077 18.9653 596.294 20.97 595.608 22.717L632.838 37.343ZM625.542 41.8385C625.088 42.0658 624.815 42.1262 624.83 42.1227L615.966 3.11734C613.195 3.74711 610.388 4.69417 607.654 6.06146L625.542 41.8385ZM624.83 42.1227C624.951 42.0952 624.788 42.145 624.388 42.145V2.145C621.454 2.145 618.631 2.51151 615.966 3.11734L624.83 42.1227ZM624.388 42.145C623.68 42.145 622.606 42.0471 621.321 41.6335C620.006 41.2099 618.719 40.5338 617.579 39.6309L642.407 8.26908C636.856 3.87441 630.432 2.145 624.388 2.145V42.145ZM618.307 40.1807C616.327 38.7553 614.644 36.7564 613.567 34.3873C612.547 32.1429 612.368 30.231 612.368 29.175H652.368C652.368 21.8637 649.567 13.3987 641.679 7.7193L618.307 40.1807ZM612.368 29.175C612.368 28.1952 612.467 27.4579 612.54 27.0356C612.615 26.6027 612.689 26.3426 612.706 26.2867L651.08 37.5733C651.705 35.449 652.368 32.5199 652.368 29.175H612.368ZM612.706 26.2867C612.814 25.9166 612.898 25.7001 612.906 25.6793C612.918 25.6463 612.895 25.7084 612.818 25.8824C612.659 26.2426 612.376 26.8409 611.922 27.723L647.494 46.017C648.687 43.6964 650.188 40.6072 651.08 37.5733L612.706 26.2867ZM612.032 27.5122C611.117 29.2414 609.629 31.8638 607.472 35.5009L641.874 55.909C644.15 52.0728 646.019 48.8053 647.384 46.2278L612.032 27.5122ZM607.344 35.719C605.348 39.1839 602.532 43.8515 598.848 49.7833L632.828 70.8867C636.617 64.7851 639.692 59.6994 642.002 55.691L607.344 35.719ZM595.838 60.335V79.62H635.838V60.335H595.838Z" fill="#8B5E3B" mask="url(#path-1-outside-1_17_2)"/>
</g>
<defs>
<filter id="filter0_d_17_2" x="0.800049" y="0.625" width="651.568" height="112.085" filterUnits="userSpaceOnUse" color-interpolation-filters="sRGB">
<feFlood flood-opacity="0" result="BackgroundImageFix"/>
<feColorMatrix in="SourceAlpha" type="matrix" values="0 0 0 0 0 0 0 0 0 0 0 0 0 0 0 0 0 0 127 0" result="hardAlpha"/>
<feOffset dx="-5" dy="7"/>
<feGaussianBlur stdDeviation="2"/>
<feComposite in2="hardAlpha" operator="out"/>
<feColorMatrix type="matrix" values="0 0 0 0 0 0 0 0 0 0 0 0 0 0 0 0 0 0 0.25 0"/>
<feBlend mode="normal" in2="BackgroundImageFix" result="effect1_dropShadow_17_2"/>
<feBlend mode="normal" in="SourceGraphic" in2="effect1_dropShadow_17_2" result="shape"/>
</filter>
<linearGradient id="paint0_linear_17_2" x1="26" y1="55" x2="675" y2="55" gradientUnits="userSpaceOnUse">
<stop stop-color="#EB8E8E"/>
<stop offset="1" stop-color="#FFD0A7"/>
</linearGradient>
</defs>
</svg>
